<svg width="20" height="20" viewBox="0 0 20 20" fill="none" xmlns="http://www.w3.org/2000/svg">
<path d="M9.99984 1.66663C11.5375 1.66663 12.7743 1.66663 13.7832 1.73982L10.9153 6.04165H7.00099L9.91767 1.66663H9.99984Z" fill="#6F55DA"/>
<path d="M2.88689 2.88701C3.93053 1.84338 5.51812 1.69222 8.41289 1.67033L5.49868 6.04165H1.75332C1.87603 4.57157 2.17217 3.60173 2.88689 2.88701Z" fill="#6F55DA"/>
<path fill-rule="evenodd" clip-rule="evenodd" d="M1.6665 9.99996C1.6665 8.96934 1.6665 8.07392 1.68854 7.29165H18.3111C18.3332 8.07392 18.3332 8.96934 18.3332 9.99996C18.3332 13.9283 18.3332 15.8925 17.1128 17.1129C15.8924 18.3333 13.9282 18.3333 9.99984 18.3333C6.07147 18.3333 4.10728 18.3333 2.88689 17.1129C1.6665 15.8925 1.6665 13.9283 1.6665 9.99996ZM10.8448 10.4876C11.9482 11.1995 12.4998 11.5555 12.4998 12.0833C12.4998 12.6111 11.9482 12.967 10.8448 13.6789C9.7264 14.4006 9.16717 14.7614 8.75017 14.4965C8.33317 14.2315 8.33317 13.5155 8.33317 12.0833C8.33317 10.6511 8.33317 9.93504 8.75017 9.67011C9.16717 9.40519 9.72638 9.766 10.8448 10.4876Z" fill="#6F55DA"/>
<path d="M18.2464 6.04165C18.1236 4.57157 17.8275 3.60173 17.1128 2.88701C16.615 2.38924 15.9935 2.0945 15.1654 1.91998L12.4177 6.04165H18.2464Z" fill="#6F55DA"/>
</svg>
