<svg width="89" height="88" viewBox="0 0 89 88" fill="none" xmlns="http://www.w3.org/2000/svg">
<rect x="0.5" width="88" height="88" rx="44" fill="currentColor" fillOpacity="0.1"/>
<path d="M30 34.8729C30 34.2155 30.5445 33.6825 31.2162 33.6825H39.1965C39.2073 32.2804 39.3592 30.3583 40.7506 29.0277C41.8456 27.9806 43.3468 27.3333 45 27.3333C46.6532 27.3333 48.1544 27.9806 49.2494 29.0277C50.6407 30.3583 50.7927 32.2804 50.8035 33.6825H58.7838C59.4555 33.6825 60 34.2155 60 34.8729C60 35.5304 59.4555 36.0634 58.7838 36.0634H31.2162C30.5445 36.0634 30 35.5304 30 34.8729Z" fill="#E60909"/>
<path fillRule="evenodd" clipRule="evenodd" d="M44.326 60.6666H45.674C50.3119 60.6666 52.6308 60.6666 54.1385 59.19C55.6463 57.7135 55.8005 55.2915 56.109 50.4474L56.5535 43.4676C56.7209 40.8393 56.8046 39.5251 56.0482 38.6923C55.2919 37.8596 54.0146 37.8596 51.4599 37.8596H38.5401C35.9854 37.8596 34.7081 37.8596 33.9518 38.6923C33.1954 39.5251 33.2791 40.8393 33.4465 43.4676L33.891 50.4474C34.1995 55.2915 34.3537 57.7135 35.8615 59.19C37.3692 60.6666 39.6881 60.6666 44.326 60.6666ZM42.0771 44.314C42.0084 43.591 41.3959 43.0634 40.709 43.1357C40.022 43.208 39.5208 43.8528 39.5895 44.5759L40.4229 53.3478C40.4916 54.0709 41.1041 54.5985 41.791 54.5262C42.478 54.4539 42.9792 53.8091 42.9105 53.086L42.0771 44.314ZM49.291 43.1357C49.978 43.208 50.4792 43.8528 50.4105 44.5759L49.5771 53.3478C49.5084 54.0709 48.8959 54.5985 48.209 54.5262C47.522 54.4539 47.0208 53.8091 47.0895 53.086L47.9229 44.314C47.9916 43.591 48.6041 43.0634 49.291 43.1357Z" fill="#E60909"/>
</svg>
