<svg width="32" height="25" viewBox="0 0 32 25" fill="none" xmlns="http://www.w3.org/2000/svg">
<path fill-rule="evenodd" clip-rule="evenodd" d="M31.4448 21.5188C32.3283 19.8341 32.1461 17.7886 30.9786 16.2867L25.4527 9.1781L18.1291 1.24418C16.5415 -0.475739 13.9457 -0.338598 12.4857 1.2009C12.1776 1.52569 11.8772 1.8615 11.5554 2.17265C11.5299 2.19723 11.5046 2.22212 11.4794 2.24734L2.13583 11.5909C1.12407 12.6027 0.427956 13.8865 0.132097 15.2865C-1.04885 20.8745 5.97469 24.3773 9.72773 20.0721L13.3872 15.8742C15.1776 13.8203 18.4527 14.1186 19.8427 16.4621L22.9735 21.7405C24.9111 25.0072 29.6808 24.8823 31.4448 21.5188Z" fill="url(#paint0_linear_16_12)"/>
<defs>
<linearGradient id="paint0_linear_16_12" x1="26.0968" y1="20.3157" x2="4.59231" y2="-0.211289" gradientUnits="userSpaceOnUse">
<stop stop-color="#6F55DA"/>
<stop offset="1" stop-color="#E1E2F8"/>
</linearGradient>
</defs>
</svg>
