<svg width="22" height="20" viewBox="0 0 22 20" fill="none" xmlns="http://www.w3.org/2000/svg">
<path fill-rule="evenodd" clip-rule="evenodd" d="M15.125 9.99988C15.125 9.58566 14.7892 9.24988 14.375 9.24988L3.40244 9.24988L5.36309 7.56932C5.67759 7.29975 5.71401 6.82628 5.44444 6.51178C5.17488 6.19729 4.7014 6.16087 4.38691 6.43044L0.886906 9.43044C0.720671 9.57292 0.625 9.78093 0.625 9.99988C0.625 10.2188 0.720671 10.4268 0.886906 10.5693L4.38691 13.5693C4.7014 13.8389 5.17488 13.8025 5.44444 13.488C5.71401 13.1735 5.67759 12.7 5.36309 12.4304L3.40244 10.7499L14.375 10.7499C14.7892 10.7499 15.125 10.4141 15.125 9.99988Z" fill="#040503"/>
<path d="M8.375 5.99988C8.375 6.70207 8.375 7.05317 8.54351 7.30538C8.61648 7.41459 8.71025 7.50836 8.81946 7.58132C9.07167 7.74984 9.42277 7.74984 10.125 7.74984L14.375 7.74984C15.6176 7.74984 16.625 8.7572 16.625 9.99984C16.625 11.2425 15.6176 12.2498 14.375 12.2498L10.125 12.2498C9.42277 12.2498 9.07163 12.2498 8.8194 12.4184C8.71023 12.4913 8.6165 12.5851 8.54355 12.6942C8.375 12.9465 8.375 13.2976 8.375 13.9999C8.375 16.8283 8.375 18.2425 9.25368 19.1212C10.1324 19.9999 11.5464 19.9999 14.3748 19.9999L15.3748 19.9999C18.2032 19.9999 19.6174 19.9999 20.4961 19.1212C21.3748 18.2425 21.3748 16.8283 21.3748 13.9999L21.3748 5.99988C21.3748 3.17146 21.3748 1.75723 20.4961 0.878556C19.6174 -0.0001229 18.2032 -0.000122839 15.3748 -0.000122715L14.3748 -0.000122671C11.5464 -0.000122548 10.1324 -0.000122486 9.25368 0.878557C8.375 1.75724 8.375 3.17145 8.375 5.99988Z" fill="#040503"/>
</svg>
