<svg width="12" height="12" viewBox="0 0 12 12" fill="none" xmlns="http://www.w3.org/2000/svg">
<path d="M6 1C6.92261 1 7.66465 1 8.27004 1.04391L6.54931 3.62501H4.20069L5.9507 1H6Z" fill="#6F55DA"/>
<path d="M1.73223 1.73223C2.35842 1.10605 3.31097 1.01536 5.04783 1.00222L3.29931 3.62501H1.05209C1.12571 2.74296 1.3034 2.16106 1.73223 1.73223Z" fill="#6F55DA"/>
<path fill-rule="evenodd" clip-rule="evenodd" d="M1 6C1 5.38163 1 4.84437 1.01322 4.37501H10.9868C11 4.84437 11 5.38163 11 6C11 8.35702 11 9.53553 10.2678 10.2678C9.53553 11 8.35702 11 6 11C3.64298 11 2.46447 11 1.73223 10.2678C1 9.53553 1 8.35702 1 6ZM6.50698 6.2926C7.16899 6.71975 7.5 6.93332 7.5 7.25C7.5 7.56668 7.169 7.78025 6.50699 8.20739C5.83594 8.64037 5.5004 8.85686 5.2502 8.69791C5 8.53895 5 8.1093 5 7.25C5 6.3907 5 5.96105 5.2502 5.80209C5.5004 5.64314 5.83593 5.85963 6.50698 6.2926Z" fill="#6F55DA"/>
<path d="M10.9479 3.62501C10.8743 2.74296 10.6966 2.16106 10.2678 1.73223C9.9691 1.43357 9.5962 1.25673 9.09936 1.15201L7.45069 3.62501H10.9479Z" fill="#6F55DA"/>
</svg>
