<svg width="32" height="32" viewBox="0 0 32 32" fill="none" xmlns="http://www.w3.org/2000/svg">
<rect width="32" height="32" rx="5" fill="#FEFBB3"/>
<path d="M14.1818 9.39131L16.5454 8.86957H17.4545L20 10.087L21.2727 12.6957V14.6087L22.9091 14.4348V14.9565V15.8261L21.8181 16.1739L21.4545 16.6957L22.3636 18.4348L24.7272 19.6522L24.1818 20.3478L22.5454 20.8696L22.1818 21.5652L21.8181 22.087H19.8181L18.9091 22.4348L16.9091 23.4783L15.6363 23.1304L14.1818 22.4348L13.0909 22.087H11.6363L11.0909 21.7391L10.5454 20.8696L9.63633 20.6957L8.90906 20.1739V19.6522L9.81815 19.1304L11.4545 17.913L11.8181 16.6957L10.3636 15.8261L10.5454 14.9565L11.0909 14.4348L12.1818 14.6087L12.7272 11.4783L14.1818 9.39131Z" fill="white"/>
<path d="M16.6851 9.19835C18.9207 9.19906 20.783 10.9794 20.7857 13.123C20.7863 13.6251 20.8025 14.0874 20.8321 14.5133C20.8504 14.7761 21.0789 14.9709 21.3409 14.9709C21.3795 14.9709 21.4188 14.9666 21.4583 14.9578L22.1587 14.8008C22.1885 14.794 22.2184 14.7909 22.2479 14.7909C22.4258 14.7909 22.5896 14.9071 22.6295 15.0793C22.686 15.3226 22.5435 15.5684 22.297 15.6511L21.2339 16.0616C20.9655 16.1652 20.8213 16.4446 20.8969 16.7119C21.7498 19.728 24.1321 19.4143 24.1321 19.8073C24.1321 20.3007 22.3365 20.3704 22.1742 20.5256C22.012 20.6808 22.1672 21.434 21.8047 21.5798C21.7364 21.6073 21.6393 21.6169 21.5209 21.6169C21.2479 21.6169 20.8618 21.5659 20.4548 21.5659C20.1018 21.5659 19.7332 21.6042 19.409 21.7475C18.5491 22.1274 17.7201 22.8371 16.6925 22.8371C15.6648 22.8371 14.8358 22.1274 13.9759 21.7475C13.6517 21.6042 13.2831 21.5659 12.9301 21.5659C12.5231 21.5659 12.137 21.6169 11.864 21.6169C11.7456 21.6169 11.6485 21.6073 11.5802 21.5798C11.2177 21.434 11.3729 20.6808 11.2107 20.5256C11.0485 20.3704 9.25283 20.3007 9.25283 19.8072C9.25283 19.4143 11.6351 19.7279 12.488 16.7119C12.5636 16.4446 12.4194 16.1652 12.151 16.0616L11.0879 15.6511C10.8414 15.5684 10.6989 15.3226 10.7553 15.0792C10.7953 14.907 10.9591 14.7908 11.1369 14.7908C11.1665 14.7908 11.1964 14.794 11.2262 14.8007L11.9266 14.9578C11.9661 14.9666 12.0054 14.9708 12.0439 14.9708C12.3059 14.9708 12.5345 14.7761 12.5527 14.5133C12.5824 14.0874 12.5986 13.6251 12.5992 13.123C12.6019 10.9794 14.4494 9.1991 16.6851 9.19835ZM16.6853 8.34782H16.6847C16.0174 8.34803 15.3673 8.47629 14.7527 8.72906C14.1626 8.97167 13.6316 9.31759 13.1743 9.75724C12.7177 10.1963 12.3583 10.7061 12.1062 11.2723C11.8441 11.8611 11.7108 12.4834 11.71 13.122C11.7096 13.4355 11.7028 13.7397 11.6897 14.0311L11.4291 13.9726C11.3335 13.9512 11.2352 13.9403 11.137 13.9403C10.8534 13.9402 10.5737 14.0319 10.3493 14.1984C10.1153 14.3721 9.95113 14.6195 9.88721 14.895C9.73509 15.5506 10.1136 16.2126 10.7695 16.4454L11.5498 16.7466C11.0331 18.2635 10.0804 18.5541 9.43892 18.7499C9.26869 18.8019 9.12166 18.8468 8.98167 18.9132C8.42386 19.178 8.36365 19.6267 8.36365 19.8072C8.36365 20.1531 8.5348 20.4688 8.84562 20.696C9.00037 20.8092 9.19208 20.9025 9.43166 20.9814C9.75821 21.0889 10.1368 21.1572 10.4444 21.2119C10.4593 21.3209 10.4811 21.4381 10.5178 21.5561C10.6704 22.0464 10.9923 22.2659 11.2355 22.3637C11.4663 22.4566 11.7047 22.4673 11.864 22.4673C12.0198 22.4673 12.1844 22.4556 12.3588 22.4433C12.5458 22.43 12.7393 22.4163 12.9301 22.4163C13.2258 22.4163 13.4459 22.4501 13.603 22.5195C13.8187 22.6148 14.0475 22.7434 14.2897 22.8794C14.964 23.2582 15.7282 23.6875 16.6925 23.6875C17.6567 23.6875 18.4209 23.2582 19.0952 22.8794C19.3374 22.7433 19.5662 22.6148 19.7819 22.5195C19.939 22.4501 20.1591 22.4163 20.4548 22.4163C20.6457 22.4163 20.8391 22.4301 21.0261 22.4433C21.2004 22.4556 21.3651 22.4673 21.5209 22.4673C21.6802 22.4673 21.9186 22.4566 22.1494 22.3637C22.3926 22.2659 22.7145 22.0464 22.8671 21.5561C22.9038 21.4381 22.9256 21.3209 22.9405 21.2119C23.2481 21.1572 23.6267 21.0889 23.9532 20.9814C24.1928 20.9025 24.3845 20.8092 24.5393 20.696C24.85 20.4688 25.0212 20.1531 25.0212 19.8072C25.0212 19.6267 24.961 19.178 24.4031 18.9132C24.2632 18.8468 24.1161 18.8019 23.9459 18.75C23.3044 18.5542 22.3517 18.2635 21.835 16.7466L22.6152 16.4454C23.2712 16.2126 23.6497 15.5506 23.4976 14.895C23.4337 14.6195 23.2695 14.3721 23.0355 14.1984C22.8111 14.0319 22.5314 13.9403 22.2479 13.9403C22.1497 13.9403 22.0514 13.9511 21.9558 13.9726L21.6952 14.031C21.6821 13.7397 21.6753 13.4355 21.6749 13.1219C21.6741 12.4829 21.5397 11.8599 21.2755 11.2704C21.0218 10.7044 20.6605 10.1948 20.2015 9.75568C19.7426 9.31661 19.2101 8.97105 18.6189 8.72865C18.003 8.47619 17.3525 8.34806 16.6853 8.34782Z" fill="#050505"/>
</svg>
