<svg width="16" height="16" viewBox="0 0 16 16" fill="none" xmlns="http://www.w3.org/2000/svg">
<path fill-rule="evenodd" clip-rule="evenodd" d="M12.2094 2.92722C12.8394 2.29726 12.3932 1.22012 11.5023 1.22012L2.34071 1.22012C2.00378 1.22012 1.73065 0.946984 1.73065 0.610058C1.73065 0.273133 2.00378 0 2.34071 0H15.388C15.7249 0 15.998 0.273133 15.998 0.610058L15.998 14.2781C15.998 14.615 15.7249 14.8881 15.388 14.8881C15.051 14.8881 14.7779 14.615 14.7779 14.2781L14.7779 4.49843C14.7779 3.60753 13.7008 3.16136 13.0708 3.79133L1.04143 15.8207C0.803192 16.0589 0.416924 16.0589 0.178682 15.8207C-0.0595606 15.5824 -0.0595607 15.1962 0.178682 14.9579L12.2094 2.92722Z" fill="white"/>
</svg>
