<svg width="6" height="10" viewBox="0 0 6 10" fill="none" xmlns="http://www.w3.org/2000/svg">
<path d="M5.35833 4.40831L1.825 0.874978C1.74753 0.796871 1.65536 0.734875 1.55381 0.692568C1.45226 0.650261 1.34334 0.628479 1.23333 0.628479C1.12332 0.628479 1.0144 0.650261 0.912853 0.692568C0.811303 0.734875 0.719136 0.796871 0.641667 0.874978C0.486458 1.03111 0.39934 1.24232 0.39934 1.46248C0.39934 1.68263 0.486458 1.89384 0.641667 2.04998L3.59167 4.99998L0.641667 7.94998C0.486458 8.10611 0.39934 8.31732 0.39934 8.53748C0.39934 8.75763 0.486458 8.96884 0.641667 9.12498C0.719533 9.20221 0.81188 9.26332 0.913411 9.30479C1.01494 9.34626 1.12366 9.36728 1.23333 9.36664C1.34301 9.36728 1.45172 9.34626 1.55326 9.30479C1.65479 9.26332 1.74713 9.20221 1.825 9.12498L5.35833 5.59164C5.43644 5.51418 5.49844 5.42201 5.54074 5.32046C5.58305 5.21891 5.60483 5.10999 5.60483 4.99998C5.60483 4.88997 5.58305 4.78105 5.54074 4.6795C5.49844 4.57795 5.43644 4.48578 5.35833 4.40831Z" fill="#7B7B7B"/>
</svg>
