<svg width="20" height="20" viewBox="0 0 20 20" fill="none" xmlns="http://www.w3.org/2000/svg">
<path fill-rule="evenodd" clip-rule="evenodd" d="M10 20C15.5228 20 20 15.5228 20 10C20 4.47715 15.5228 0 10 0C4.47715 0 0 4.47715 0 10C0 15.5228 4.47715 20 10 20ZM11.9563 12.0949C11.763 12.2644 11.5167 12.3629 11.024 12.56C8.71425 13.4839 7.55936 13.9459 6.89971 13.4976C6.7433 13.3913 6.6084 13.2564 6.50212 13.1C6.05386 12.4404 6.51582 11.2855 7.43973 8.97569C7.6368 8.48302 7.73533 8.23669 7.9048 8.04343C7.94799 7.99419 7.99435 7.94782 8.0436 7.90464C8.23685 7.73517 8.48318 7.63663 8.97586 7.43956C11.2856 6.51565 12.4405 6.0537 13.1002 6.50196C13.2566 6.60824 13.3915 6.74314 13.4978 6.89954C13.946 7.5592 13.4841 8.71409 12.5602 11.0239C12.3631 11.5165 12.2646 11.7629 12.0951 11.9561C12.0519 12.0054 12.0055 12.0517 11.9563 12.0949Z" fill="#6F55DA"/>
</svg>
