<svg width="32" height="32" viewBox="0 0 32 32" fill="none" xmlns="http://www.w3.org/2000/svg">
<rect width="32" height="32" rx="5" fill="#EEFBFF"/>
<path d="M23.942 10.8974C23.4137 11.1248 22.8582 11.2831 22.2893 11.3685C22.5553 11.3229 22.9466 10.8442 23.1024 10.6505C23.339 10.3582 23.5194 10.0245 23.6343 9.66644C23.6343 9.63985 23.6609 9.60185 23.6343 9.58286C23.6209 9.57554 23.6059 9.57171 23.5906 9.57171C23.5753 9.57171 23.5603 9.57554 23.5469 9.58286C22.9292 9.91735 22.2718 10.1727 21.5903 10.3427C21.5665 10.35 21.5412 10.3506 21.5171 10.3446C21.493 10.3386 21.471 10.3261 21.4535 10.3085C21.4004 10.2454 21.3433 10.1857 21.2825 10.13C21.0045 9.88089 20.6891 9.67704 20.3479 9.52587C19.8872 9.33688 19.3897 9.25504 18.8928 9.28651C18.4106 9.31696 17.9399 9.44629 17.5098 9.66644C17.0863 9.89855 16.7142 10.2139 16.4156 10.5935C16.1016 10.9842 15.8749 11.4376 15.7508 11.9232C15.6484 12.3852 15.6368 12.8626 15.7166 13.329C15.7166 13.4087 15.7166 13.4201 15.6482 13.4087C12.9393 13.0098 10.7167 12.0486 8.90062 9.98558C8.82084 9.8944 8.77905 9.8944 8.71446 9.98558C7.9242 11.1862 8.30793 13.0858 9.29575 14.0242C9.42872 14.1496 9.5655 14.2712 9.70987 14.3852C9.25696 14.353 8.81512 14.2303 8.41051 14.0242C8.33453 13.9748 8.29274 14.0014 8.28894 14.0926C8.27817 14.219 8.27817 14.3461 8.28894 14.4725C8.36821 15.0784 8.60697 15.6523 8.98079 16.1356C9.35461 16.6189 9.85008 16.9942 10.4165 17.2232C10.5546 17.2824 10.6985 17.327 10.8459 17.3562C10.4266 17.4388 9.99656 17.4516 9.5731 17.3942C9.48191 17.3752 9.44772 17.4246 9.48191 17.512C10.0404 19.0317 11.2524 19.4952 12.1414 19.7536C12.263 19.7726 12.3846 19.7726 12.5214 19.803C12.5214 19.803 12.5213 19.803 12.4986 19.8258C12.2364 20.3045 11.1764 20.6274 10.6901 20.7946C9.80245 21.1134 8.85606 21.2353 7.91661 21.1517C7.76843 21.1289 7.73424 21.1327 7.69625 21.1517C7.65825 21.1707 7.69625 21.2125 7.73804 21.2505C7.928 21.3759 8.11797 21.486 8.31553 21.5924C8.90368 21.9132 9.52547 22.1681 10.1696 22.3523C13.5054 23.2717 17.2591 22.5954 19.7628 20.1069C21.7308 18.1541 22.4223 15.4604 22.4223 12.7629C22.4223 12.6603 22.5477 12.5995 22.6199 12.5463C23.1178 12.1584 23.5567 11.7002 23.923 11.1862C23.9865 11.1095 24.019 11.012 24.0142 10.9126C24.0142 10.8556 24.0142 10.867 23.942 10.8974Z" fill="#33CCFF"/>
</svg>
