<svg width="20" height="20" viewBox="0 0 20 20" fill="none" xmlns="http://www.w3.org/2000/svg">
<path d="M12.3583 9.40833L8.82495 5.875C8.74748 5.79689 8.65532 5.7349 8.55377 5.69259C8.45222 5.65028 8.3433 5.6285 8.23329 5.6285C8.12328 5.6285 8.01435 5.65028 7.91281 5.69259C7.81126 5.7349 7.71909 5.79689 7.64162 5.875C7.48641 6.03114 7.39929 6.24235 7.39929 6.4625C7.39929 6.68266 7.48641 6.89387 7.64162 7.05L10.5916 10L7.64162 12.95C7.48641 13.1061 7.39929 13.3173 7.39929 13.5375C7.39929 13.7577 7.48641 13.9689 7.64162 14.125C7.71949 14.2022 7.81183 14.2633 7.91336 14.3048C8.01489 14.3463 8.12361 14.3673 8.23329 14.3667C8.34296 14.3673 8.45168 14.3463 8.55321 14.3048C8.65474 14.2633 8.74709 14.2022 8.82495 14.125L12.3583 10.5917C12.4364 10.5142 12.4984 10.422 12.5407 10.3205C12.583 10.2189 12.6048 10.11 12.6048 10C12.6048 9.88999 12.583 9.78107 12.5407 9.67952C12.4984 9.57797 12.4364 9.4858 12.3583 9.40833Z" fill="#979797"/>
</svg>
