<svg width="251" height="250" viewBox="0 0 251 250" fill="none" xmlns="http://www.w3.org/2000/svg">
<g clip-path="url(#clip0_50_4050)">
<circle cx="125.5" cy="125" r="125" fill="#6F55DA" fill-opacity="0.1"/>
<path d="M98.6628 148.964C98.6628 148.964 86.1514 99.1757 69.443 87.5233C79.8651 106.576 90.6782 150.532 90.6782 150.532L98.6628 148.964Z" fill="#6F55DA"/>
<path d="M102.811 148.14C102.811 148.14 92.5842 105.697 102.811 90.9641C101.589 109.169 110.789 146.572 110.789 146.572L102.811 148.14Z" fill="#6F55DA"/>
<path d="M97.1844 149.25L104.918 147.725C104.918 147.725 93.9221 87.6941 77.3237 72.0763C83.0968 81.9351 94.643 136.524 97.1844 149.25Z" fill="#6F55DA"/>
<path d="M88.2835 151.007L94.9057 149.702C94.9057 149.702 78.7838 106.063 60.4321 93.2336C73.8538 115.568 83.9582 139.849 88.2835 151.007Z" fill="#6F55DA"/>
<path d="M81.5145 152.343C81.5145 152.343 67.0665 125.775 53.2905 120.077C63.0651 130.033 75.662 153.497 75.662 153.497L81.5145 152.343Z" fill="#6F55DA"/>
<path d="M89.768 150.715C89.768 150.715 72.1494 112.109 59.7662 105.209C67.5737 116.868 83.9155 151.868 83.9155 151.868L89.768 150.715Z" fill="#6F55DA"/>
<path d="M80.4332 152.557L86.1147 151.435C86.1147 151.435 71.795 119.241 57.6891 111.389C63.0345 116.526 77.2382 145.736 80.4332 152.557Z" fill="#6F55DA"/>
<path d="M73.8965 153.844L78.7838 152.886C78.7838 152.886 62.2343 129.795 47.0959 123.518C59.4424 135.146 69.498 147.951 73.8965 153.844Z" fill="#6F55DA"/>
<g opacity="0.5">
<path d="M98.6628 148.964C98.6628 148.964 86.1514 99.1757 69.443 87.5233C79.8651 106.576 90.6782 150.532 90.6782 150.532L98.6628 148.964Z" fill="white"/>
<path d="M102.811 148.14C102.811 148.14 92.5842 105.697 102.811 90.9641C101.589 109.169 110.789 146.572 110.789 146.572L102.811 148.14Z" fill="white"/>
<path d="M97.1844 149.25L104.918 147.725C104.918 147.725 93.9221 87.6941 77.3237 72.0763C83.0968 81.9351 94.643 136.524 97.1844 149.25Z" fill="white"/>
<path d="M88.2835 151.007L94.9057 149.702C94.9057 149.702 78.7838 106.063 60.4321 93.2336C73.8538 115.568 83.9582 139.849 88.2835 151.007Z" fill="white"/>
<path d="M81.5145 152.343C81.5145 152.343 67.0665 125.775 53.2905 120.077C63.0651 130.033 75.662 153.497 75.662 153.497L81.5145 152.343Z" fill="white"/>
<path d="M89.768 150.715C89.768 150.715 72.1494 112.109 59.7662 105.209C67.5737 116.868 83.9155 151.868 83.9155 151.868L89.768 150.715Z" fill="white"/>
<path d="M80.4332 152.557L86.1147 151.434C86.1147 151.434 71.795 119.241 57.6891 111.389C63.0345 116.526 77.2382 145.736 80.4332 152.557Z" fill="white"/>
<path d="M73.8965 153.844L78.7838 152.886C78.7838 152.886 62.2343 129.795 47.0959 123.518C59.4424 135.146 69.498 147.951 73.8965 153.844Z" fill="white"/>
</g>
<path d="M166.852 155.009C166.852 155.009 191.289 131.51 204.228 130.417C192.651 136.17 170.915 157.553 170.915 157.553L166.852 155.009Z" fill="#6F55DA"/>
<path d="M164.733 153.68C164.733 153.68 186.438 134.115 184.19 125.47C180.274 133.84 160.67 151.136 160.67 151.136L164.733 153.68Z" fill="#6F55DA"/>
<path d="M167.61 155.479L163.657 153.039C163.657 153.039 185.003 131.9 199.09 129.081C192.877 131.937 172.827 150.599 167.61 155.479Z" fill="#6F55DA"/>
<path d="M172.149 158.322L168.771 156.205C168.771 156.205 190.293 137.549 204.533 136.335C190.256 142.796 177.928 154.54 172.149 158.322Z" fill="#6F55DA"/>
<path d="M175.595 160.482C175.595 160.482 190.654 149.824 200.178 150.605C191.668 152.594 178.582 162.355 178.582 162.355L175.595 160.482Z" fill="#6F55DA"/>
<path d="M171.391 157.846C171.391 157.846 191.82 142.753 200.911 142.692C193.012 145.877 174.373 159.719 174.373 159.719L171.391 157.846Z" fill="#6F55DA"/>
<path d="M176.157 160.842L173.255 159.012C173.255 159.012 189.908 145.901 200.257 145.834C195.7 146.81 179.993 158.645 176.157 160.842Z" fill="#6F55DA"/>
<path d="M179.492 162.922L177.012 161.366C177.012 161.366 192.236 152.697 202.707 153.551C192.223 155.65 183.744 161.415 179.492 162.922Z" fill="#6F55DA"/>
<g opacity="0.5">
<path d="M166.852 155.009C166.852 155.009 191.289 131.51 204.228 130.417C192.651 136.17 170.915 157.553 170.915 157.553L166.852 155.009Z" fill="white"/>
<path d="M164.733 153.68C164.733 153.68 186.438 134.115 184.19 125.47C180.274 133.84 160.67 151.136 160.67 151.136L164.733 153.68Z" fill="white"/>
<path d="M167.61 155.479L163.657 153.039C163.657 153.039 185.003 131.9 199.09 129.081C192.877 131.937 172.827 150.599 167.61 155.479Z" fill="white"/>
<path d="M172.149 158.322L168.771 156.205C168.771 156.205 190.293 137.549 204.533 136.335C190.256 142.796 177.928 154.54 172.149 158.322Z" fill="white"/>
<path d="M175.595 160.482C175.595 160.482 190.654 149.824 200.178 150.605C191.668 152.594 178.582 162.355 178.582 162.355L175.595 160.482Z" fill="white"/>
<path d="M171.391 157.846C171.391 157.846 191.82 142.753 200.911 142.692C193.012 145.877 174.373 159.719 174.373 159.719L171.391 157.846Z" fill="white"/>
<path d="M176.157 160.842L173.255 159.012C173.255 159.012 189.908 145.901 200.257 145.834C195.7 146.81 179.993 158.646 176.157 160.842Z" fill="white"/>
<path d="M179.492 162.922L177.012 161.367C177.012 161.367 192.236 152.697 202.707 153.552C192.223 155.65 183.744 161.415 179.492 162.922Z" fill="white"/>
</g>
<path d="M89.041 140.874H178.521C179.579 140.874 180.594 141.294 181.342 142.041C182.09 142.788 182.51 143.801 182.51 144.858V188.216C182.51 189.272 182.09 190.286 181.342 191.033C180.594 191.78 179.579 192.199 178.521 192.199H75.9187C74.8607 192.199 73.846 191.78 73.0979 191.033C72.3497 190.286 71.9294 189.272 71.9294 188.216V157.956C71.9294 153.426 73.7316 149.081 76.9395 145.877C80.1474 142.674 84.4983 140.874 89.0349 140.874H89.041Z" fill="#6F55DA"/>
<path opacity="0.2" d="M89.041 140.874H178.521C179.579 140.874 180.594 141.294 181.342 142.041C182.09 142.788 182.51 143.801 182.51 144.858V188.216C182.51 189.272 182.09 190.286 181.342 191.033C180.594 191.78 179.579 192.199 178.521 192.199H75.9187C74.8607 192.199 73.846 191.78 73.0979 191.033C72.3497 190.286 71.9294 189.272 71.9294 188.216V157.956C71.9294 153.426 73.7316 149.081 76.9395 145.877C80.1474 142.674 84.4983 140.874 89.0349 140.874H89.041Z" fill="black"/>
<path opacity="0.2" d="M178.521 192.193H165.399C164.341 192.193 163.326 191.774 162.578 191.027C161.83 190.279 161.409 189.266 161.409 188.21V157.956C161.409 153.426 163.211 149.081 166.419 145.877C169.627 142.674 173.978 140.874 178.515 140.874C179.571 140.874 180.584 141.293 181.331 142.039C182.078 142.785 182.498 143.797 182.498 144.852V188.21C182.498 189.264 182.079 190.276 181.334 191.022C180.588 191.769 179.577 192.19 178.521 192.193Z" fill="black"/>
<path d="M77.8918 225.656H74.709L79.1136 192.193H84.3919L77.8918 225.656Z" fill="#263238"/>
<path d="M156.51 225.656H159.693L155.288 192.193H150.01L156.51 225.656Z" fill="#263238"/>
<path d="M97.9297 225.656H94.7468L99.1515 192.193H104.43L97.9297 225.656Z" fill="#263238"/>
<path d="M176.548 225.656H179.73L175.326 192.193H170.047L176.548 225.656Z" fill="#263238"/>
<path d="M69.779 27.657L60.7864 191.608L189.389 198.471L198.07 34.4288L69.779 27.657ZM180.714 169.456L72.7663 163.758L79.0342 45.2698L186.982 50.9678L180.714 169.456Z" fill="#6F55DA"/>
<path opacity="0.8" d="M69.779 27.657L60.7864 191.608L189.389 198.471L198.07 34.4288L69.779 27.657ZM180.714 169.456L72.7663 163.758L79.0342 45.2698L186.982 50.9678L180.714 169.456Z" fill="white"/>
<path d="M80.867 170.658C80.7982 170.183 80.5626 169.748 80.2023 169.43C79.8421 169.112 79.3805 168.933 78.9 168.923C78.4195 168.914 77.9511 169.075 77.5785 169.378C77.2059 169.681 76.9533 170.107 76.8656 170.579C76.8187 170.102 76.6047 169.658 76.2613 169.325C75.9179 168.991 75.4674 168.79 74.9896 168.756C74.5118 168.723 74.0375 168.859 73.6507 169.141C73.2639 169.423 72.9896 169.833 72.8763 170.298C72.7443 170.988 72.8844 171.703 73.2673 172.293C73.6517 172.874 74.1073 173.405 74.6235 173.873C75.32 174.556 75.9614 175.197 76.6579 175.874C77.4093 175.264 78.0507 174.654 78.8083 174.044C79.3635 173.623 79.8642 173.136 80.2989 172.592C80.7253 172.042 80.9282 171.351 80.867 170.658Z" fill="white"/>
<path d="M179.767 182.054C179.693 182.049 179.623 182.017 179.572 181.962L177.342 179.522L175.039 181.621C174.996 181.658 174.944 181.682 174.889 181.689C174.833 181.697 174.777 181.689 174.726 181.665C174.675 181.64 174.633 181.602 174.604 181.554C174.574 181.506 174.56 181.451 174.562 181.395L174.886 174.141C174.891 174.065 174.923 173.994 174.977 173.94C175.035 173.89 175.109 173.864 175.185 173.867L180.127 174.086C180.203 174.091 180.274 174.125 180.325 174.181C180.376 174.236 180.404 174.31 180.402 174.385L180.066 181.773C180.065 181.83 180.047 181.886 180.013 181.932C179.979 181.978 179.931 182.012 179.877 182.03L179.767 182.054ZM177.378 178.833C177.416 178.835 177.453 178.845 177.486 178.861C177.52 178.878 177.55 178.902 177.574 178.93L179.529 181.06L179.816 174.654L175.448 174.459L175.167 180.736L177.165 178.906C177.221 178.854 177.296 178.826 177.372 178.827L177.378 178.833Z" fill="white"/>
<path d="M192.7 40.3831C192.678 40.5559 192.592 40.7144 192.459 40.8271C192.326 40.9398 192.156 40.9985 191.981 40.9916C191.807 40.9847 191.642 40.9127 191.518 40.7898C191.394 40.667 191.321 40.5022 191.313 40.3281C191.321 40.1447 191.401 39.9719 191.536 39.8473C191.671 39.7228 191.85 39.6566 192.034 39.6632C192.125 39.6663 192.215 39.6875 192.298 39.7254C192.381 39.7634 192.456 39.8174 192.517 39.8844C192.579 39.9513 192.627 40.0299 192.659 40.1155C192.69 40.2011 192.704 40.292 192.7 40.3831Z" fill="white"/>
<path d="M192.602 42.8782C192.599 42.9693 192.578 43.0589 192.54 43.1417C192.502 43.2246 192.448 43.2991 192.381 43.3609C192.314 43.4228 192.235 43.4707 192.149 43.502C192.064 43.5333 191.973 43.5473 191.881 43.5432C191.785 43.5476 191.689 43.5319 191.599 43.4972C191.509 43.4625 191.427 43.4095 191.359 43.3416C191.29 43.2737 191.237 43.1924 191.202 43.1027C191.166 43.0131 191.15 42.9171 191.154 42.8209C191.158 42.7247 191.182 42.6303 191.224 42.5437C191.266 42.4571 191.326 42.3803 191.399 42.318C191.473 42.2557 191.559 42.2094 191.651 42.1819C191.744 42.1544 191.841 42.1464 191.936 42.1583C192.028 42.1615 192.117 42.1826 192.2 42.2206C192.283 42.2586 192.358 42.3126 192.42 42.3795C192.482 42.4465 192.53 42.525 192.561 42.6106C192.592 42.6962 192.606 42.7872 192.602 42.8782Z" fill="white"/>
<path d="M192.504 45.3735C192.498 45.5108 192.452 45.6433 192.37 45.7541C192.288 45.8649 192.176 45.9491 192.046 45.996C191.917 46.043 191.777 46.0505 191.643 46.0178C191.509 45.9851 191.388 45.9135 191.295 45.8121C191.202 45.7107 191.141 45.5841 191.12 45.4482C191.099 45.3123 191.119 45.1732 191.177 45.0486C191.236 44.924 191.329 44.8193 191.447 44.7479C191.565 44.6766 191.701 44.6416 191.839 44.6475C192.023 44.657 192.196 44.7384 192.32 44.8743C192.445 45.0101 192.511 45.1894 192.504 45.3735Z" fill="white"/>
<path d="M78.7532 37.8574C79.1469 37.7079 79.4878 37.4459 79.7333 37.1041C79.9789 36.7624 80.1182 36.356 80.1339 35.9356C80.1708 35.6598 80.1503 35.3793 80.0736 35.1118C79.9969 34.8443 79.8657 34.5955 79.6881 34.381C79.5106 34.1665 79.2906 33.991 79.0419 33.8655C78.7932 33.7399 78.5212 33.6671 78.243 33.6515C77.9648 33.6359 77.6863 33.6779 77.4251 33.7748C77.1639 33.8718 76.9256 34.0216 76.7251 34.2149C76.5247 34.4082 76.3664 34.6407 76.2602 34.898C76.154 35.1553 76.1021 35.4317 76.108 35.7099C76.0792 36.1322 76.1757 36.5536 76.3854 36.9214C76.5951 37.2892 76.9087 37.5872 77.287 37.778C76.6482 37.822 76.0368 38.0541 75.5301 38.445C75.0233 38.8359 74.6441 39.3681 74.4402 39.9743C75.1176 40.8342 76.0828 41.4212 77.1587 41.6276L78.3805 41.6947C79.486 41.6084 80.5221 41.1225 81.2946 40.3281C81.165 39.7106 80.854 39.1457 80.4014 38.7056C79.9487 38.2655 79.3748 37.9701 78.7532 37.8574Z" fill="white"/>
<path d="M77.7696 42.1034C76.7017 42.0464 75.6748 41.6743 74.8186 41.0343C73.9625 40.3943 73.3156 39.5152 72.9599 38.508C72.6041 37.5009 72.5555 36.411 72.8201 35.3762C73.0846 34.3415 73.6506 33.4083 74.4463 32.6948C75.242 31.9813 76.2317 31.5194 77.2903 31.3677C78.3489 31.2159 79.4287 31.3811 80.3933 31.8423C81.3579 32.3035 82.1638 33.04 82.7092 33.9586C83.2546 34.8773 83.5149 35.9368 83.4572 37.0032C83.3767 38.4315 82.7332 39.7697 81.6674 40.7255C80.6016 41.6812 79.2002 42.1767 77.7696 42.1034ZM78.3195 31.9335C77.3722 31.8818 76.4309 32.1118 75.6145 32.5944C74.7982 33.077 74.1435 33.7906 73.7334 34.6448C73.3232 35.4991 73.1759 36.4556 73.3102 37.3934C73.4445 38.3313 73.8544 39.2082 74.4879 39.9134C75.1214 40.6186 75.95 41.1203 76.8691 41.3551C77.7882 41.5899 78.7564 41.5472 79.6511 41.2324C80.5459 40.9176 81.327 40.3448 81.8958 39.5866C82.4645 38.8284 82.7953 37.9187 82.8463 36.9727C82.9129 35.7056 82.4739 34.4637 81.6254 33.5191C80.7769 32.5746 79.5881 32.0044 78.3195 31.9335Z" fill="white"/>
<path d="M162.955 72.4667C162.344 69.8922 156.43 65.1459 150.321 68.6538C144.212 72.1617 138.201 75.7794 139.447 83.1857C140.693 90.592 133.442 87.6331 129.593 93.2336C125.744 98.834 122.561 121.297 139.856 115.111C146.802 112.628 149.466 112.384 155.129 116.178C160.792 119.973 173.157 104.916 166.168 94.4171C160.823 86.413 171.123 74.3152 162.955 72.4667Z" fill="#263238"/>
<path d="M137.394 102.763C137.083 103.208 136.838 103.519 136.557 103.879C136.276 104.239 135.995 104.557 135.708 104.886C135.134 105.545 134.548 106.179 133.937 106.802C132.705 108.035 131.393 109.184 130.008 110.242C127.2 112.444 124.017 114.122 120.613 115.196L120.295 115.294L120.13 115.343L119.843 115.416C119.41 115.524 118.963 115.567 118.517 115.544C118.002 115.508 117.498 115.383 117.027 115.172C116.594 114.962 116.198 114.684 115.854 114.348C115.355 113.835 114.961 113.23 114.693 112.567C114.485 112.064 114.324 111.543 114.21 111.011C113.879 109.236 113.764 107.427 113.868 105.624C114.039 102.274 114.513 98.9452 115.286 95.6801L117.998 96.0766C117.859 99.2399 117.88 102.408 118.059 105.569C118.131 107.013 118.356 108.444 118.731 109.84C118.809 110.099 118.911 110.35 119.037 110.59C119.134 110.779 119.244 110.877 119.22 110.828C119.093 110.693 118.922 110.609 118.737 110.59C118.658 110.59 118.603 110.59 118.615 110.59L118.743 110.541L118.994 110.444C121.76 109.353 124.335 107.831 126.624 105.935C127.795 104.985 128.909 103.966 129.96 102.885C130.491 102.348 131.01 101.793 131.505 101.232C131.756 100.945 131.994 100.658 132.232 100.372C132.47 100.085 132.721 99.7614 132.886 99.5601L137.394 102.763Z" fill="#C78976"/>
<path d="M137.798 95.1858C135.494 95.1858 129.306 101.427 129.306 101.427L134.297 109.522C134.297 109.522 142.239 103.525 142.062 100.542C141.909 97.4309 141.158 95.1919 137.798 95.1858Z" fill="#6F55DA"/>
<path opacity="0.2" d="M138.683 102.122C137.663 102.732 135.305 106.24 134.462 109.394C136.084 108.135 137.625 106.773 139.074 105.319C139.288 103.324 139.282 101.75 138.683 102.122Z" fill="black"/>
<path d="M117.638 97.4798L122.403 94.4294L117.894 93.5326C117.894 93.5326 114.333 94.5819 115.163 96.6684L117.638 97.4798Z" fill="#C78976"/>
<path d="M113.215 160.14L107.802 160.085L107.014 147.554L112.427 147.609L113.215 160.14Z" fill="#C78976"/>
<path d="M123.71 216.041L118.383 215.053L118.969 202.418L124.29 203.413L123.71 216.041Z" fill="#C78976"/>
<path d="M117.967 214.528L123.985 213.65C124.088 213.63 124.195 213.651 124.284 213.706C124.373 213.761 124.439 213.848 124.468 213.949L125.848 218.603C125.88 218.722 125.886 218.845 125.866 218.966C125.846 219.086 125.801 219.202 125.733 219.304C125.666 219.406 125.578 219.492 125.474 219.558C125.371 219.623 125.255 219.666 125.133 219.683C123.026 219.952 121.999 219.976 119.348 220.367C117.723 220.605 114.516 221.623 112.268 221.953C110.02 222.282 109.574 220.074 110.478 219.738C113.115 218.848 115.427 217.194 117.118 214.986C117.339 214.738 117.639 214.576 117.967 214.528Z" fill="#263238"/>
<path d="M107.466 159.286L113.538 159.658C113.644 159.663 113.743 159.705 113.819 159.778C113.894 159.852 113.94 159.95 113.948 160.055L114.339 164.893C114.345 165.015 114.325 165.137 114.281 165.251C114.237 165.365 114.169 165.468 114.082 165.554C113.995 165.64 113.89 165.706 113.776 165.749C113.661 165.792 113.538 165.81 113.416 165.802C111.303 165.637 110.557 165.539 107.888 165.375C106.244 165.277 102.53 165.265 100.257 165.125C97.9847 164.984 98.0458 162.611 99.0049 162.471C103.281 161.818 105.041 160.671 106.544 159.561C106.808 159.361 107.135 159.264 107.466 159.286Z" fill="#263238"/>
<g opacity="0.2">
<path d="M107.014 147.554L107.442 154.375L112.86 154.436L112.433 147.609L107.014 147.554Z" fill="black"/>
<path d="M124.29 203.413L118.963 202.424L118.646 209.458L123.979 210.282L124.29 203.413Z" fill="black"/>
</g>
<path d="M137.718 95.1919C137.718 95.1919 135.036 95.7349 135.757 127.874L157.536 130.924C158.41 122.023 159.167 116.563 165.942 98.9866C162.981 97.9317 159.947 97.0936 156.864 96.4792C153.605 95.7825 150.299 95.3218 146.973 95.1004C142.66 94.8808 137.718 95.1919 137.718 95.1919Z" fill="#6F55DA"/>
<path opacity="0.2" d="M164.898 101.665C162.856 102.18 161.071 103.415 159.87 105.142C158.422 107.357 160.23 112.707 160.676 113.915C161.666 110.615 163.016 106.68 164.898 101.665Z" fill="black"/>
<path d="M157.267 86.413C156.198 89.506 154.928 94.0511 156.858 96.4792C153.604 100.918 149.846 104.965 145.66 108.54C141.842 99.6942 146.973 95.0882 146.973 95.0882C150.639 94.7343 150.749 93.2885 150.48 90.7323L157.267 86.413Z" fill="#C78976"/>
<path opacity="0.2" d="M154.494 88.17L150.468 90.7323C150.548 91.3225 150.575 91.9188 150.547 92.5138C151.928 92.5138 154.213 91.6475 154.72 90.2199C154.94 89.5549 154.561 88.5117 154.494 88.17Z" fill="black"/>
<path d="M162.442 81.4165C160.505 86.4252 159.796 88.5849 156.381 90.3907C151.244 93.0994 145.513 89.6342 145.911 84.1496C146.265 79.2141 149.368 71.8567 155.019 71.4113C156.264 71.3071 157.515 71.5223 158.653 72.0363C159.791 72.5504 160.778 73.3463 161.522 74.3486C162.266 75.3509 162.74 76.5263 162.901 77.7632C163.062 79.0002 162.904 80.2577 162.442 81.4165Z" fill="#C78976"/>
<path d="M161.929 72.9915C161.116 70.7586 152.154 69.8862 148.66 72.235C145.165 74.5837 163.932 78.5187 161.929 72.9915Z" fill="#263238"/>
<path d="M135.745 127.898C132.483 120.815 107.985 105.234 105.951 120.101C103.709 136.463 106.336 152.777 106.336 152.777L113.893 151.868C113.893 151.868 113.502 140.209 116.269 129.362C118.053 134.895 127.876 144.535 131.059 144.675C142.74 145.175 149.289 137.738 151.696 130.1L135.745 127.898Z" fill="#263238"/>
<path opacity="0.2" d="M136.924 136.097C133.055 136.776 129.371 138.258 126.111 140.447C128.054 142.887 129.892 144.62 131.059 144.675H131.243C133.851 141.582 138.494 135.829 136.924 136.097Z" fill="black"/>
<path d="M114.284 153.1L105.694 153.008L105.096 150.263L114.717 150.031L114.284 153.1Z" fill="#6F55DA"/>
<path d="M141.5 128.679C141.5 128.679 121.169 146.469 118.462 160.616C115.255 177.411 117.613 207.464 117.613 207.464L124.889 208.818C124.889 208.818 129.868 179.894 131.542 164.844C138.024 152.758 161.635 143.711 157.542 130.912L141.5 128.679Z" fill="#263238"/>
<path d="M125.634 209.349L116.63 207.677L116.202 204.669L126.881 206.164L125.634 209.349Z" fill="#6F55DA"/>
<path d="M153.858 80.1964C153.724 80.6112 153.394 80.8735 153.125 80.8064C152.857 80.7393 152.74 80.3184 152.869 79.8974C152.997 79.4765 153.327 79.2142 153.602 79.2874C153.877 79.3606 153.987 79.7754 153.858 80.1964Z" fill="#263238"/>
<path d="M149.148 78.7017C149.02 79.1227 148.69 79.385 148.415 79.3118C148.14 79.2386 148.03 78.8238 148.165 78.4028C148.299 77.9819 148.623 77.7195 148.898 77.7927C149.173 77.8659 149.283 78.2869 149.148 78.7017Z" fill="#263238"/>
<path d="M149.008 77.872L148.104 77.262C148.104 77.262 148.366 78.1954 149.008 77.872Z" fill="#263238"/>
<path d="M150.364 79.9097C149.692 80.7407 148.909 81.4756 148.036 82.0937C148.201 82.3134 148.411 82.4944 148.653 82.6241C148.894 82.7537 149.162 82.8288 149.435 82.8441L150.364 79.9097Z" fill="#8B5D54"/>
<path d="M151.189 85.1928C150.981 85.1592 150.777 85.1081 150.578 85.0403C150.545 85.0304 150.518 85.0082 150.502 84.9786C150.486 84.9489 150.483 84.9141 150.492 84.8817C150.503 84.849 150.527 84.8219 150.558 84.8059C150.588 84.79 150.624 84.7866 150.657 84.7963C151.171 84.9712 151.72 85.0232 152.258 84.9479C152.795 84.8727 153.308 84.6724 153.755 84.3631C153.781 84.3491 153.811 84.3447 153.84 84.3505C153.87 84.3564 153.896 84.3723 153.915 84.3953C153.933 84.4184 153.943 84.4473 153.943 84.4771C153.943 84.5068 153.932 84.5356 153.913 84.5584C153.526 84.8423 153.084 85.0449 152.616 85.1539C152.148 85.263 151.662 85.2762 151.189 85.1928Z" fill="#263238"/>
<path d="M159.784 73.8578C157.829 75.8161 158.336 81.4166 160.927 84.6194C163.517 87.8223 165.246 78.5187 163.828 75.6514C162.411 72.784 160.859 72.7901 159.784 73.8578Z" fill="#263238"/>
<path d="M162.155 85.992C161.83 86.3907 161.43 86.7215 160.977 86.9654C160.524 87.2094 160.027 87.3616 159.515 87.4135C158.141 87.5416 157.683 86.2604 158.294 85.0952C158.819 84.0459 160.163 82.7159 161.446 83.1308C161.723 83.2266 161.972 83.3901 162.17 83.6064C162.367 83.8227 162.508 84.0849 162.578 84.3692C162.649 84.6535 162.647 84.9509 162.573 85.2344C162.499 85.5178 162.355 85.7782 162.155 85.992Z" fill="#C78976"/>
<path d="M159.54 88.5361C160.063 88.5361 160.487 88.1127 160.487 87.5905C160.487 87.0683 160.063 86.6449 159.54 86.6449C159.017 86.6449 158.593 87.0683 158.593 87.5905C158.593 88.1127 159.017 88.5361 159.54 88.5361Z" fill="#6F55DA"/>
<path d="M155.434 78.9518C155.382 78.9367 155.336 78.9057 155.302 78.8631C155.268 78.8204 155.248 78.7683 155.245 78.7139C155.19 77.5304 153.913 76.7007 153.901 76.6885C153.872 76.6711 153.847 76.6479 153.827 76.6204C153.807 76.5929 153.793 76.5617 153.785 76.5286C153.778 76.4955 153.777 76.4612 153.784 76.4279C153.79 76.3945 153.803 76.3628 153.822 76.3346C153.859 76.2782 153.917 76.2388 153.984 76.225C154.05 76.2113 154.119 76.2244 154.176 76.2614C154.237 76.298 155.691 77.2497 155.758 78.7017C155.76 78.7351 155.755 78.7684 155.743 78.7998C155.732 78.8311 155.714 78.8599 155.691 78.8843C155.669 78.9088 155.641 78.9284 155.611 78.9421C155.58 78.9558 155.547 78.9633 155.514 78.964C155.487 78.9663 155.46 78.9622 155.434 78.9518Z" fill="#263238"/>
<path d="M147.933 75.7734C147.875 75.7667 147.822 75.7411 147.781 75.7006C147.741 75.6602 147.715 75.6072 147.708 75.5502C147.701 75.4933 147.713 75.4356 147.743 75.3864C147.772 75.3373 147.818 75.2995 147.871 75.2792C148.247 75.1188 148.655 75.0507 149.062 75.0804C149.469 75.1101 149.863 75.2369 150.211 75.45C150.267 75.4888 150.305 75.5483 150.317 75.6152C150.329 75.6821 150.314 75.7511 150.275 75.8069C150.237 75.8627 150.177 75.9008 150.11 75.9128C150.043 75.9249 149.974 75.9098 149.918 75.871C149.644 75.7081 149.334 75.6127 149.016 75.5925C148.697 75.5724 148.378 75.6281 148.085 75.7551C148.037 75.7766 147.984 75.783 147.933 75.7734Z" fill="#263238"/>
<path d="M115.267 215.614L115.206 215.577C115.104 215.507 115.022 215.41 114.968 215.298C114.915 215.185 114.891 215.061 114.901 214.937C114.893 214.855 114.91 214.774 114.948 214.701C114.986 214.629 115.043 214.569 115.115 214.528C115.725 214.156 117.473 214.967 117.674 215.059C117.699 215.068 117.72 215.085 117.734 215.107C117.748 215.129 117.755 215.155 117.754 215.181C117.751 215.205 117.741 215.228 117.726 215.248C117.711 215.267 117.691 215.282 117.668 215.291C117.008 215.571 115.854 215.943 115.267 215.614ZM117.271 215.181C116.55 214.882 115.548 214.571 115.237 214.76C115.209 214.78 115.187 214.806 115.173 214.837C115.159 214.869 115.153 214.903 115.157 214.937C115.151 215.02 115.165 215.103 115.2 215.178C115.234 215.254 115.286 215.32 115.353 215.37C115.658 215.584 116.367 215.504 117.271 215.181Z" fill="#6F55DA"/>
<path d="M117.381 215.224C116.77 214.9 115.872 214.003 115.903 213.467C115.907 213.364 115.946 213.267 116.014 213.19C116.082 213.113 116.174 213.062 116.275 213.046C116.37 213.021 116.469 213.017 116.566 213.033C116.663 213.048 116.755 213.084 116.837 213.137C117.497 213.57 117.729 215.108 117.735 215.175C117.738 215.196 117.736 215.218 117.728 215.238C117.721 215.258 117.708 215.276 117.693 215.291C117.673 215.303 117.651 215.309 117.628 215.309C117.606 215.309 117.584 215.303 117.564 215.291C117.501 215.273 117.44 215.251 117.381 215.224ZM116.66 213.332C116.611 213.306 116.556 213.291 116.501 213.287C116.445 213.283 116.389 213.29 116.336 213.308C116.178 213.351 116.153 213.43 116.147 213.491C116.147 213.869 116.862 214.644 117.436 214.98C117.326 214.467 117.082 213.619 116.691 213.363L116.66 213.332Z" fill="#6F55DA"/>
<path d="M105.377 160.104C104.912 160.116 104.458 159.97 104.088 159.689C104.01 159.609 103.952 159.513 103.919 159.407C103.887 159.3 103.879 159.188 103.898 159.079C103.905 159.008 103.931 158.94 103.973 158.882C104.015 158.824 104.071 158.778 104.137 158.749C104.821 158.426 106.904 159.658 107.142 159.805C107.165 159.818 107.182 159.839 107.192 159.863C107.202 159.887 107.204 159.914 107.197 159.939C107.194 159.965 107.182 159.989 107.163 160.007C107.144 160.025 107.119 160.035 107.093 160.037C106.525 160.114 105.95 160.137 105.377 160.104ZM104.485 158.926C104.402 158.92 104.319 158.93 104.24 158.957C104.215 158.97 104.194 158.989 104.178 159.012C104.162 159.036 104.152 159.063 104.149 159.091C104.133 159.166 104.136 159.243 104.157 159.317C104.178 159.39 104.217 159.457 104.271 159.512C104.583 159.823 105.493 159.933 106.678 159.805C106.003 159.388 105.261 159.091 104.485 158.926Z" fill="#6F55DA"/>
<path d="M107.069 160.018H107.014C106.403 159.689 105.181 158.444 105.322 157.84C105.358 157.7 105.468 157.523 105.829 157.511C105.957 157.505 106.084 157.525 106.204 157.57C106.324 157.615 106.433 157.684 106.525 157.773C107.167 158.383 107.203 159.841 107.203 159.902C107.203 159.925 107.198 159.948 107.187 159.968C107.176 159.988 107.161 160.005 107.142 160.018H107.069ZM105.914 157.749H105.835C105.603 157.749 105.578 157.846 105.572 157.877C105.493 158.243 106.299 159.213 106.935 159.652C106.909 159.034 106.696 158.438 106.324 157.944C106.214 157.834 106.069 157.765 105.914 157.749Z" fill="#6F55DA"/>
<path d="M153.718 79.3484L152.808 78.7383C152.808 78.7383 153.07 79.7022 153.718 79.3484Z" fill="#263238"/>
<path d="M158.031 129.679L158.318 131.705C158.373 131.869 158.171 131.998 157.915 131.961L135.501 128.831C135.305 128.831 135.158 128.691 135.158 128.563L135.238 126.586C135.238 126.452 135.427 126.361 135.641 126.391L157.701 129.441C157.773 129.447 157.841 129.472 157.899 129.514C157.958 129.556 158.003 129.613 158.031 129.679Z" fill="white"/>
<path d="M154.653 131.723L155.263 131.802C155.386 131.802 155.483 131.802 155.483 131.699L155.563 129.13C155.563 129.051 155.471 128.978 155.349 128.966L154.738 128.88C154.616 128.88 154.518 128.911 154.518 128.99L154.439 131.552C154.439 131.632 154.53 131.705 154.653 131.723Z" fill="#263238"/>
<path d="M137.107 129.277L137.718 129.362C137.834 129.362 137.932 129.325 137.932 129.252L138.011 126.684C138.011 126.611 137.92 126.531 137.804 126.519L137.193 126.434C137.077 126.434 136.979 126.464 136.973 126.544L136.924 129.118C136.918 129.185 137.016 129.258 137.107 129.277Z" fill="#263238"/>
<path d="M145.856 130.497L146.466 130.576C146.583 130.576 146.68 130.546 146.68 130.472L146.76 127.904C146.76 127.825 146.668 127.751 146.552 127.733L145.941 127.654C145.825 127.654 145.727 127.684 145.721 127.758L145.66 130.338C145.66 130.405 145.739 130.478 145.856 130.497Z" fill="#263238"/>
<path d="M123.203 92.5259L119.03 92.1233L117.894 93.5204L122.403 94.4172L123.203 92.5259Z" fill="#C78976"/>
<path d="M156.901 139.562L151.28 141.179L155.856 144.23C155.856 144.23 158.941 142.637 158.972 140.386L156.901 139.562Z" fill="#C78976"/>
<path d="M167.476 104.99C167.61 105.484 167.695 105.862 167.793 106.289C167.891 106.716 167.964 107.119 168.038 107.509C168.19 108.333 168.312 109.157 168.429 109.95C168.63 111.603 168.746 113.256 168.807 114.91C168.868 116.563 168.807 118.222 168.734 119.869C168.685 120.699 168.618 121.523 168.514 122.346L168.447 122.956L168.41 123.268L168.355 123.64C168.286 124.115 168.188 124.585 168.062 125.049C167.838 125.911 167.55 126.755 167.201 127.575C166.877 128.374 166.522 129.142 166.144 129.893C165.38 131.381 164.561 132.803 163.7 134.163C161.947 136.918 160.002 139.546 157.878 142.027L155.661 140.417C157.224 137.745 158.715 134.981 160.108 132.229C160.78 130.851 161.44 129.466 161.983 128.075C162.543 126.761 162.972 125.396 163.266 124C163.33 123.696 163.375 123.388 163.401 123.078V122.859V122.578V122.017C163.444 121.26 163.437 120.504 163.45 119.753C163.45 118.241 163.401 116.734 163.303 115.233C163.205 113.726 163.04 112.225 162.826 110.743C162.729 109.998 162.619 109.254 162.484 108.528C162.423 108.156 162.344 107.796 162.277 107.436C162.209 107.076 162.124 106.698 162.063 106.43L167.476 104.99Z" fill="#C78976"/>
<path d="M165.93 98.9744C168.019 99.9445 169.595 107.808 169.595 107.808L160.988 112.079C160.988 112.079 158.074 105.978 159.387 103.275C160.743 100.494 163.547 97.8702 165.93 98.9744Z" fill="#6F55DA"/>
<path d="M148.611 144.858L152.576 147.213L155.856 144.236L151.28 141.173L148.611 144.858Z" fill="#C78976"/>
<path d="M118.181 69.2583L109.938 69.5227C107.524 69.6002 105.629 71.6176 105.707 74.0288L105.971 82.2606C106.049 84.6718 108.069 86.5636 110.484 86.4862L118.727 86.2217C121.141 86.1442 123.036 84.1268 122.958 81.7156L122.693 73.4839C122.616 71.0727 120.596 69.1808 118.181 69.2583Z" fill="#6F55DA"/>
<path d="M119.03 73.388C118.369 72.7689 117.489 72.4372 116.583 72.4658C115.677 72.4944 114.819 72.8809 114.198 73.5405C113.534 72.9406 112.661 72.6253 111.766 72.6624C110.871 72.6996 110.027 73.0862 109.415 73.739C108.803 74.3918 108.472 75.2586 108.494 76.1526C108.515 77.0466 108.888 77.8963 109.531 78.5187L114.51 83.1857L119.183 78.2075C119.803 77.5481 120.135 76.67 120.106 75.7662C120.077 74.8624 119.691 74.007 119.03 73.388Z" fill="white"/>
<path d="M103.71 51.4621L96.9151 52.7124C94.9242 53.0788 93.6077 54.9874 93.9745 56.9756L95.2265 63.7613C95.5934 65.7494 97.5046 67.0641 99.4955 66.6978L106.29 65.4475C108.281 65.0812 109.598 63.1725 109.231 61.1844L107.979 54.3987C107.612 52.4105 105.701 51.0958 103.71 51.4621Z" fill="#6F55DA"/>
<path d="M104.925 54.7807C104.615 54.568 104.267 54.4181 103.9 54.3398C103.533 54.2614 103.154 54.2561 102.784 54.324C102.415 54.392 102.063 54.532 101.747 54.736C101.432 54.94 101.161 55.2039 100.948 55.5128C100.323 55.0832 99.5531 54.919 98.8073 55.0563C98.0614 55.1936 97.4008 55.6212 96.9706 56.2449C96.5404 56.8687 96.376 57.6375 96.5135 58.3823C96.6509 59.1271 97.0791 59.7869 97.7037 60.2165L102.414 63.4621L105.664 58.7523C105.877 58.4431 106.026 58.0951 106.104 57.7281C106.182 57.3611 106.187 56.9824 106.118 56.6135C106.05 56.2447 105.909 55.893 105.704 55.5785C105.499 55.264 105.234 54.9929 104.925 54.7807Z" fill="white"/>
<path d="M126.133 46.926L120.982 45.897C119.473 45.5957 118.005 46.5728 117.704 48.0793L116.673 53.2241C116.371 54.7307 117.35 56.1962 118.858 56.4976L124.01 57.5265C125.519 57.8278 126.987 56.8508 127.288 55.3442L128.319 50.1995C128.62 48.6929 127.642 47.2273 126.133 46.926Z" fill="#6F55DA"/>
<path d="M126.062 49.6135C125.742 49.1337 125.245 48.8001 124.679 48.6858C124.114 48.5714 123.526 48.6856 123.044 49.0034C122.72 48.5237 122.218 48.1921 121.65 48.0817C121.081 47.9713 120.491 48.0911 120.011 48.4147C119.531 48.7383 119.199 49.2392 119.088 49.8073C118.977 50.3753 119.097 50.9639 119.421 51.4437L121.835 55.0553L125.457 52.6455C125.697 52.4868 125.903 52.2823 126.064 52.0437C126.224 51.8051 126.336 51.5371 126.392 51.2553C126.448 50.9734 126.448 50.6832 126.391 50.4015C126.335 50.1197 126.223 49.8519 126.062 49.6135Z" fill="white"/>
<path d="M109.485 35.0492L105.309 36.2184C104.084 36.5613 103.37 37.8307 103.713 39.0538L104.884 43.2246C105.227 44.4476 106.498 45.1612 107.723 44.8183L111.899 43.6491C113.124 43.3063 113.839 42.0368 113.495 40.8137L112.325 36.643C111.981 35.4199 110.71 34.7063 109.485 35.0492Z" fill="#6F55DA"/>
<path d="M110.435 37.0582C110.02 36.8257 109.53 36.7671 109.072 36.8952C108.614 37.0233 108.225 37.3277 107.991 37.7415C107.576 37.5077 107.084 37.4484 106.625 37.5765C106.165 37.7046 105.776 38.0098 105.542 38.4248C105.307 38.8398 105.248 39.3307 105.376 39.7895C105.505 40.2483 105.81 40.6374 106.226 40.8712L109.36 42.6282L111.119 39.4985C111.235 39.2936 111.31 39.0677 111.338 38.834C111.367 38.6002 111.349 38.3631 111.285 38.1364C111.221 37.9096 111.114 37.6976 110.968 37.5126C110.822 37.3276 110.641 37.1732 110.435 37.0582Z" fill="white"/>
<path d="M170.967 36.8084L159.028 38.7352C155.531 39.2996 153.154 42.5884 153.719 46.0808L155.649 58.0032C156.214 61.4956 159.507 63.8692 163.005 63.3048L174.943 61.3779C178.441 60.8135 180.817 57.5248 180.252 54.0323L178.323 42.1099C177.757 38.6175 174.464 36.2439 170.967 36.8084Z" fill="#263238"/>
<path d="M174.024 46.9048C173.863 45.6999 173.409 44.553 172.7 43.5647C171.991 42.5764 171.05 41.777 169.96 41.2366C168.87 40.6963 167.663 40.4316 166.446 40.4657C165.23 40.4998 164.04 40.8317 162.982 41.4323C161.923 42.0329 161.029 42.8838 160.377 43.9102C159.725 44.9367 159.335 46.1073 159.242 47.3192C159.149 48.5312 159.355 49.7475 159.843 50.8613C160.33 51.9751 161.084 52.9523 162.038 53.7071L162.264 58.1118L164.293 54.9211C165.489 55.3267 166.77 55.4202 168.013 55.1927C169.256 54.9652 170.421 54.4243 171.396 53.6212C172.371 52.8181 173.124 51.7795 173.584 50.6041C174.044 49.4286 174.196 48.1552 174.024 46.9048Z" fill="white"/>
</g>
<defs>
<clipPath id="clip0_50_4050">
<rect width="250" height="250" fill="white" transform="translate(0.5)"/>
</clipPath>
</defs>
</svg>
