<svg width="1440" height="762" viewBox="0 0 1440 762" fill="none" xmlns="http://www.w3.org/2000/svg">
<g opacity="0.3" clip-path="url(#clip0_34_984)">
<path d="M1842.42 2370.69C1840.69 2372.42 1839.12 2372.17 1838.33 2370.8C1837.33 2369.05 1836.71 2366.99 1836.31 2365C1833.55 2351.12 1830.43 2337.31 1828.26 2323.34C1823.79 2294.47 1821.62 2265.36 1819.47 2236.23C1817.24 2205.65 1814.54 2175.08 1809.25 2144.86C1801.83 2102.43 1788.64 2061.91 1767.29 2024.32C1754.29 2001.46 1738.94 1980.23 1721.87 1960.19C1697.55 1931.63 1670.48 1905.78 1643.31 1880.01C1620.42 1858.31 1597.5 1836.62 1576.14 1813.4C1552.72 1787.94 1531.54 1760.77 1514.95 1730.29C1503.17 1708.68 1494.54 1685.9 1489.07 1661.86C1480.89 1625.8 1480.31 1589.43 1483.28 1552.77C1486.4 1514.16 1493.48 1476.22 1501.87 1438.49C1510.19 1401.08 1519.04 1363.8 1527.45 1326.41C1534.58 1294.73 1539.89 1262.72 1541.79 1230.29C1544.25 1188.2 1540.77 1146.65 1529.51 1105.85C1519.88 1070.99 1505.72 1038.02 1489.25 1005.97C1474.45 977.122 1459.24 948.475 1444.35 919.674C1425.78 883.745 1409.82 846.708 1396.83 808.366C1385.68 775.381 1376.63 741.82 1368.35 708.038C1361.05 678.263 1354.25 648.354 1344.82 619.133C1336.86 594.383 1327.14 570.341 1313.71 547.982C1295.52 517.764 1271.88 492.593 1243 472.337C1215.02 452.701 1184.4 438.467 1152.39 426.822C1118.51 414.469 1083.68 405.637 1048.44 398.42C1021.89 392.996 995.174 388.325 968.262 384.938C948.388 382.436 928.559 379.425 908.663 377.057C889.94 374.821 871.151 373.094 852.383 371.235C830.097 369.043 807.811 366.851 785.503 364.859C769.06 363.376 752.616 362.158 736.151 360.83C717.649 359.347 699.125 357.885 680.624 356.358C661.546 354.786 642.447 353.281 623.37 351.532C604.005 349.739 584.663 347.724 565.298 345.732C529.224 342.013 493.195 338.072 457.364 332.405C438.155 329.372 418.989 326.118 399.934 322.266C380.304 318.281 360.74 313.898 341.353 308.895C321.678 303.825 302.38 297.383 283.436 289.901C265.576 282.861 248.225 274.803 231.472 265.438C213.944 255.631 197.434 244.319 181.654 231.9C164.016 217.975 148.037 202.324 132.789 185.853C130.598 183.485 127.898 181.625 125.685 179.278C120.816 174.165 115.77 169.184 111.366 163.693C90.5182 137.726 70.1354 111.36 49.0002 85.6138C35.7215 69.4532 21.3805 54.1561 7.52639 38.4826C5.57884 36.2688 3.54278 34.1436 1.70589 31.8413C1.21901 31.2436 1.17474 30.1809 1.17474 29.3397C1.17474 28.8527 1.6395 28.3435 2.08212 27.458C3.45425 28.6534 4.87065 29.6939 6.06573 30.9336C23.7485 49.1308 40.5461 68.0807 56.4141 87.8718C78.1691 114.991 100.123 141.954 122.033 168.962C124.999 172.615 128.075 176.091 132.125 178.747C135.024 180.651 137.304 183.529 139.716 186.119C153.326 200.863 167.844 214.632 183.491 227.229C214.276 252.001 248.225 271.261 284.918 285.805C322.873 300.859 362.2 310.887 402.125 318.945C445.502 327.69 489.322 333.667 533.252 338.692C560.473 341.813 587.805 344.16 615.093 346.794C636.206 348.831 657.342 350.89 678.477 352.727C697.266 354.366 716.1 355.694 734.889 357.288C758.968 359.324 783.024 361.45 807.103 363.575C821.201 364.815 835.298 366.054 849.374 367.427C868.738 369.309 888.103 371.035 907.424 373.315C932.299 376.26 957.175 379.359 981.961 382.967C1002.37 385.956 1022.64 389.808 1042.95 393.306C1065.64 397.202 1087.95 402.781 1110.15 408.736C1145.82 418.321 1180.5 430.696 1213.25 447.897C1234.96 459.298 1255.33 472.824 1273.52 489.45C1295.52 509.573 1313.24 532.906 1326.85 559.383C1336.46 578.045 1344.01 597.526 1350.27 617.539C1359.45 646.805 1366.27 676.691 1373.4 706.51C1383.49 748.683 1395.11 790.434 1410.38 831.057C1420.11 857.002 1430.96 882.505 1443.73 907.144C1457.69 934.086 1472.12 960.806 1485.89 987.858C1495.51 1006.76 1504.72 1025.91 1513.44 1045.24C1522.4 1065.14 1529.82 1085.68 1535.04 1106.92C1537.92 1118.65 1540.55 1130.47 1542.46 1142.38C1544.47 1154.89 1546.13 1167.51 1546.79 1180.15C1547.55 1194.56 1547.61 1209.06 1546.95 1223.47C1545.24 1260.71 1538.89 1297.25 1530.42 1333.52C1521.14 1373.12 1511.78 1412.73 1503.15 1452.46C1495.01 1489.94 1488.68 1527.73 1486.46 1566.1C1484.52 1599.88 1486.66 1633.31 1494.63 1666.25C1498.59 1682.63 1504.48 1698.35 1511.58 1713.64C1521.3 1734.59 1533.69 1753.89 1547.43 1772.37C1566.11 1797.54 1587.47 1820.32 1609.82 1842.2C1629.63 1861.57 1649.79 1880.56 1669.71 1899.8C1688.37 1917.82 1706.45 1936.41 1723.51 1955.98C1740.42 1975.38 1755.56 1996.03 1768.59 2018.17C1780.43 2038.29 1790.08 2059.43 1797.49 2081.64C1803.38 2099.3 1808.45 2117.15 1811.66 2135.48C1814.25 2150.29 1816.75 2165.14 1818.32 2180.06C1821.13 2206.74 1823.19 2233.5 1825.62 2260.22C1828.15 2287.83 1830.67 2315.43 1836.18 2342.64C1837.57 2349.57 1839.28 2356.46 1840.81 2363.36C1841.36 2365.89 1841.87 2368.41 1842.35 2370.67L1842.42 2370.69Z" fill="white"/>
<path d="M83.7018 0.981043C86.7781 1.6009 88.6814 1.46807 89.8764 2.33144C92.2445 4.03605 94.3027 6.20554 96.383 8.28649C116.987 28.9631 136.75 50.4146 156.204 72.1538C174.882 93.0296 193.959 113.507 213.988 133.121C215.449 134.56 216.909 136.176 218.68 137.128C226.293 141.29 232.158 147.577 238.664 153.089C255.086 167.036 272.525 179.522 290.916 190.79C313.888 204.869 338.055 216.337 363.108 225.989C386.788 235.109 411.132 242.149 435.742 248.281C466.084 255.852 496.758 261.63 527.587 266.766C565.121 273.009 602.832 277.857 640.61 282.13C661.989 284.543 683.434 286.336 704.835 288.351C727.719 290.498 750.602 292.645 773.508 294.66C789.951 296.099 806.417 297.294 822.86 298.689C841.074 300.239 859.266 301.899 877.458 303.471C891.268 304.666 905.078 305.618 918.865 306.946C942.347 309.182 965.806 311.485 989.243 314.03C1010.91 316.377 1032.6 318.768 1054.2 321.69C1084.27 325.763 1114.28 330.412 1144.05 336.434C1172.09 342.101 1199.91 348.565 1227.26 356.955C1262.05 367.626 1295.69 381.041 1326.96 399.77C1350.62 413.938 1372.02 431.028 1389.88 452.17C1404.02 468.906 1415.62 487.236 1424.87 507.182C1437.49 534.367 1445.94 562.836 1452.03 592.036C1457.74 619.442 1462.81 647.004 1468.21 674.477C1476.17 714.989 1484.96 755.346 1498.24 794.485C1507.71 822.423 1518.84 849.741 1532.23 876.04C1545.07 901.255 1558.5 926.16 1571.47 951.309C1589.02 985.378 1606.26 1019.6 1618.37 1056.13C1630.89 1093.94 1637.4 1132.73 1637.8 1172.55C1638.13 1205.41 1634.65 1237.9 1629.21 1270.25C1623.03 1306.91 1613.96 1342.92 1605 1378.96C1599.31 1401.83 1593.91 1424.79 1588.09 1447.64C1581.54 1473.38 1576.56 1499.42 1573.42 1525.8C1569.1 1562.09 1569.46 1598.22 1577.31 1634.04C1581.69 1654 1588.64 1673.09 1597.41 1691.53C1613.36 1725.09 1634.72 1755 1659.68 1782.38C1673.38 1797.41 1687.44 1812.13 1701.76 1826.57C1717.71 1842.68 1734.38 1858.11 1750.36 1874.21C1764.45 1888.42 1778.26 1902.96 1791.81 1917.71C1808.58 1935.97 1823.61 1955.67 1836.91 1976.62C1856.3 2007.17 1870.62 2040.02 1880.69 2074.8C1887.5 2098.37 1892.42 2122.3 1895.98 2146.52C1901.13 2181.52 1905.49 2216.63 1910.74 2251.63C1915.39 2282.6 1922.47 2313.04 1933.84 2342.31C1937.05 2350.54 1941.02 2358.47 1944.64 2366.55C1945.24 2367.86 1945.86 2369.14 1946.35 2370.2C1944.91 2372.86 1943.1 2372.44 1941.81 2371.11C1940.42 2369.67 1939.42 2367.79 1938.54 2365.95C1929.91 2348.11 1923.18 2329.56 1918.11 2310.43C1909.01 2276.14 1904.06 2241.14 1899.74 2206.01C1895.18 2168.84 1890.53 2131.65 1881.77 2095.19C1872.96 2058.59 1859.73 2023.66 1840.78 1991.03C1824.43 1962.87 1804.55 1937.28 1782.62 1913.28C1761.73 1890.41 1739.53 1868.87 1717.29 1847.35C1692.73 1823.58 1668.34 1799.58 1646.18 1773.48C1632.42 1757.3 1619.83 1740.23 1608.76 1722.06C1596.92 1702.57 1587.14 1682.16 1579.86 1660.58C1571.51 1635.81 1567.38 1610.26 1566.45 1584.18C1565.38 1554.58 1568.26 1525.3 1573.39 1496.16C1579.95 1458.95 1589.77 1422.51 1598.98 1385.94C1607.32 1352.78 1615.82 1319.66 1622.17 1286.05C1628.92 1250.37 1633.44 1214.44 1633.46 1178.02C1633.46 1128.14 1623.79 1080.22 1605.31 1033.97C1596.77 1012.61 1587.01 991.798 1576.36 971.41C1560.54 941.103 1544.58 910.841 1529.18 880.335C1509.46 841.284 1493.92 800.573 1482.39 758.356C1472.99 723.91 1466.06 688.932 1459.2 653.911C1454.42 629.626 1449.77 605.296 1444.22 581.166C1438.2 554.977 1429.9 529.43 1417.88 505.3C1410.11 489.715 1400.95 474.994 1390.02 461.313C1369.63 435.854 1344.76 415.975 1316.65 399.77C1286.6 382.458 1254.71 369.574 1221.49 359.944C1203.96 354.852 1186.34 349.916 1168.57 345.754C1138.74 338.758 1108.57 333.312 1078.23 328.951C1053.45 325.409 1028.66 321.934 1003.78 318.945C983.311 316.488 962.729 314.827 942.214 312.813C926.08 311.241 909.969 309.536 893.813 308.186C861.789 305.463 829.765 302.984 797.742 300.305C779.838 298.8 761.956 297.095 744.051 295.479C723.801 293.664 703.529 292.092 683.301 289.967C652.539 286.735 621.777 283.325 591.059 279.562C569.127 276.883 547.239 273.784 525.418 270.308C493.394 265.217 461.547 259.173 430.099 251.181C402.944 244.297 376.121 236.305 350.095 225.767C313.003 210.714 278.434 191.277 247.052 166.372C239.904 160.705 233.109 154.595 226.16 148.684C222.575 145.651 218.945 142.751 215.05 140.05C210.027 136.575 205.645 131.992 201.44 127.476C183.735 108.526 166.096 89.5097 148.613 70.3606C128.938 48.7985 109.44 27.0814 88.5486 6.67043C87.1543 5.2979 86.0035 3.65971 83.7461 0.936768L83.7018 0.981043Z" fill="white"/>
<path d="M2075.59 2370.91C2074.42 2373.04 2072.45 2372.48 2071.01 2371.69C2069 2370.56 2067.07 2369.07 2065.5 2367.37C2051.65 2352.4 2039.14 2336.44 2028.88 2318.73C2010.91 2287.78 1999.62 2254.36 1991.96 2219.69C1985.92 2192.35 1981.01 2164.77 1975.65 2137.27C1969.79 2107.16 1963.57 2077.17 1954.32 2047.86C1939.89 2002.12 1918.13 1960.26 1889.1 1922.11C1870.68 1897.92 1850.3 1875.45 1829.1 1853.66C1802.16 1825.99 1774.81 1798.72 1748.47 1770.47C1723.27 1743.44 1701.18 1713.97 1684.56 1680.7C1670.59 1652.76 1661.43 1623.34 1657.18 1592.39C1654.13 1570.1 1653.22 1547.74 1654.57 1525.3C1656.41 1494.92 1660.64 1464.84 1666.99 1435.11C1673.14 1406.28 1680.02 1377.61 1686.33 1348.84C1692.77 1319.48 1699.76 1290.24 1705.12 1260.62C1710.17 1232.7 1713.77 1204.65 1715.26 1176.36C1716.96 1144.17 1715.06 1112.14 1709.15 1080.35C1702.37 1043.84 1690.22 1009.18 1674.38 975.793C1662.89 951.574 1650.12 927.953 1638.11 903.956C1625.96 879.715 1613.43 855.652 1602.14 831.012C1583.02 789.305 1569.48 745.738 1560.85 700.621C1556.24 676.557 1552.41 652.405 1549.03 628.164C1544.4 595.179 1540.35 562.061 1533.56 529.43C1527.78 501.67 1520.19 474.462 1507.75 448.783C1496.2 424.918 1481.4 403.4 1462.5 384.871C1443.86 366.63 1422.7 351.709 1399.78 339.267C1368.26 322.155 1334.89 309.846 1300.56 299.884C1264.58 289.435 1227.95 281.82 1191.03 275.466C1161.4 270.353 1131.68 265.969 1101.82 262.449C1070.8 258.819 1039.72 255.41 1008.63 252.443C955.802 247.396 902.931 242.946 850.126 237.921C812.857 234.379 775.61 230.394 738.386 226.431C705.565 222.934 672.811 218.816 640.234 213.547C619.586 210.204 598.937 206.685 578.422 202.545C555.892 198.007 533.451 193.003 511.143 187.558C473.852 178.481 437.513 166.416 402.545 150.455C374.572 137.681 348.125 122.318 323.316 104.143C321.899 103.102 320.616 101.685 319.045 101.021C308.178 96.5051 300.012 88.2256 291.248 80.8981C265.908 59.7123 241.94 36.999 218.37 13.8429C214.608 10.1459 210.779 6.55963 207.039 2.95118C208.411 0.316794 210.358 0.914512 211.664 1.68933C213.656 2.86263 215.404 4.52296 217.131 6.11687C236.495 24.2477 255.55 42.6884 275.247 60.4428C287.707 71.6888 300.897 82.1599 314.109 92.4761C320.572 97.5235 328.052 101.243 334.78 105.958C369.57 130.265 407.193 148.883 447.051 163.272C481.775 175.825 517.384 185.034 553.369 193.092C589.93 201.283 626.845 207.415 663.826 213.104C683.346 216.115 702.976 218.373 722.606 220.676C752.749 224.218 782.936 227.605 813.101 230.859C827.154 232.386 841.274 233.427 855.349 234.733C879.715 236.969 904.06 239.249 928.426 241.463C948.964 243.345 969.524 245.049 990.061 247.042C1016.75 249.632 1043.44 252.355 1070.11 255.21C1087.39 257.07 1104.7 258.952 1121.9 261.365C1146.99 264.885 1172.09 268.449 1197.05 272.832C1220.85 276.994 1244.57 281.731 1268.12 287.155C1290.8 292.38 1313.22 298.667 1335.22 306.415C1354.98 313.366 1374.41 321.092 1393.14 330.479C1413.47 340.684 1432.84 352.506 1450.39 367.094C1467.5 381.285 1482.59 397.224 1495.01 415.797C1512.09 441.344 1523.56 469.194 1531.48 498.77C1540.11 531.046 1544.82 564.031 1549.38 597.039C1554.94 637.042 1559.92 677.133 1568.7 716.627C1577.42 755.921 1590.1 793.909 1606.59 830.592C1619.41 859.105 1633.99 886.733 1648.62 914.361C1664.07 943.538 1679.09 972.937 1691.24 1003.71C1703.3 1034.28 1711.96 1065.69 1716.38 1098.35C1720.37 1127.75 1720.54 1157.19 1718.64 1186.65C1717.09 1210.5 1714.08 1234.18 1709.32 1257.65C1705.16 1278.15 1701.4 1298.76 1696.97 1319.19C1692.22 1341.07 1686.73 1362.8 1681.82 1384.65C1673.45 1421.76 1665.57 1458.97 1661.23 1496.83C1658.27 1522.71 1657.43 1548.63 1659.73 1574.55C1663.11 1612.54 1673.21 1648.65 1690.78 1682.69C1704.94 1710.15 1723.05 1734.74 1742.99 1758.12C1759.25 1777.2 1776.8 1795.07 1794.4 1812.89C1818.01 1836.79 1841.96 1860.37 1864.24 1885.54C1887.75 1912.09 1909.08 1940.2 1926.25 1971.33C1945.77 2006.66 1959.27 2044.25 1968.75 2083.43C1977.16 2118.14 1982.75 2153.39 1989.95 2188.32C1995.59 2215.75 2001.92 2243.02 2011.66 2269.39C2025.31 2306.42 2045.28 2339.45 2073.32 2367.41C2074.13 2368.23 2074.86 2369.16 2075.59 2370.09C2075.73 2370.27 2075.59 2370.62 2075.59 2370.93V2370.91Z" fill="white"/>
<path d="M2270.57 2371.2C2263.38 2373.19 2258.66 2371.49 2254.13 2369.56C2247.33 2366.71 2240.61 2363.67 2233.99 2360.42C2205.28 2346.27 2178.42 2329.36 2155.09 2307.29C2139.62 2292.63 2126.08 2276.41 2114.72 2258.27C2096.4 2229.01 2084.05 2197.24 2074.89 2164.17C2067.32 2136.92 2060.39 2109.46 2053.22 2082.08C2045.98 2054.39 2038.02 2026.96 2027.37 2000.35C2016.17 1972.34 2002.34 1945.76 1985.76 1920.54C1965.43 1889.61 1941.57 1861.61 1916.21 1834.85C1899.79 1817.51 1882.99 1800.53 1866.57 1783.2C1847.09 1762.66 1827.86 1741.91 1810.66 1719.35C1790.01 1692.26 1772.38 1663.48 1759.92 1631.62C1747.9 1600.87 1741.19 1569.06 1738.58 1536.19C1736.77 1513.45 1736.97 1490.8 1738.87 1468.16C1740.82 1445.22 1744.27 1422.49 1748.34 1399.84C1755.09 1362.43 1763.66 1325.39 1771.49 1288.2C1777.93 1257.63 1783.77 1226.92 1787.58 1195.89C1791.45 1164.23 1793.18 1132.39 1791.25 1100.52C1789.7 1074.86 1785.37 1049.6 1778.79 1024.72C1771.25 996.115 1760.69 968.598 1747.77 942.055C1733.31 912.39 1718.11 883.08 1703.22 853.614C1685.78 819.102 1669.89 783.969 1658.33 746.977C1647.67 712.819 1640.41 677.93 1636.27 642.421C1633.3 616.94 1631.07 591.371 1628.61 565.846C1625.2 530.625 1621.93 495.382 1614.51 460.714C1609 434.946 1600.99 410.019 1588.73 386.619C1576.16 362.622 1559.63 341.702 1539.4 323.638C1517 303.625 1491.73 288.129 1464.73 275.289C1432.95 260.169 1399.75 249.033 1365.83 239.868C1336.5 231.965 1306.87 225.523 1277.01 219.967C1248.91 214.72 1220.69 210.204 1192.34 206.529C1167.22 203.275 1142.12 199.755 1116.98 196.656C1099.15 194.464 1081.24 192.782 1063.38 190.856C1043.75 188.73 1024.12 186.517 1004.49 184.391C991.301 182.975 978.111 181.691 964.92 180.296C940.311 177.684 915.679 175.226 891.091 172.371C863.87 169.205 836.648 165.973 809.493 162.254C784.972 158.889 760.495 155.147 736.106 150.986C711.43 146.757 686.776 142.285 662.299 137.083C624.233 129.003 586.632 119.063 549.629 106.954C523.271 98.3421 497.422 88.4023 472.237 76.8464C460.994 71.6883 450.238 65.534 439.217 59.8889C433.463 56.9446 427.532 54.3102 421.822 51.2773C417.13 48.7979 412.46 46.2299 408.1 43.2413C390.816 31.4419 373.642 19.4654 356.491 7.48894C354.41 6.02785 352.662 4.10187 350.36 2.04306C354.477 0.338459 357.331 1.24611 360.054 3.34919C377.847 16.9639 396.371 29.5824 415.382 41.4039C420.87 44.8131 426.779 47.4918 432.511 50.4804C434.591 51.5651 436.782 52.4949 438.818 53.6239C471.329 71.7547 505.367 86.3877 540.578 98.5192C574.062 110.053 608.033 119.794 642.469 127.896C680.646 136.884 719.11 144.234 757.861 150.388C791.346 155.701 824.874 160.593 858.558 164.467C899.567 169.205 940.554 173.898 981.585 178.414C1015.56 182.178 1049.62 185.388 1083.57 189.35C1122.78 193.933 1162.02 198.272 1201.08 204.072C1231.09 208.521 1261.12 212.949 1290.89 218.793C1325.3 225.545 1359.52 233.205 1393.09 243.521C1423.59 252.885 1453.38 263.999 1481.73 278.698C1507.22 291.914 1530.95 307.831 1551.53 328.021C1574.35 350.424 1591.52 376.569 1603.36 406.322C1616.66 439.772 1623.39 474.75 1627.22 510.325C1630.6 541.694 1633.19 573.13 1636.27 604.521C1639.7 639.476 1644.19 674.255 1652.18 708.502C1658.22 734.403 1666.43 759.618 1676.13 784.346C1687.44 813.191 1701.31 840.863 1715.48 868.38C1725.72 888.282 1736.21 908.095 1745.97 928.241C1757.42 951.862 1767.73 975.925 1775.94 1000.94C1788.58 1039.37 1794.97 1078.69 1795.64 1119.09C1796.19 1152.54 1793.05 1185.7 1788.04 1218.67C1784.59 1241.38 1780.17 1263.96 1775.61 1286.5C1769.3 1317.69 1762.33 1348.72 1755.91 1379.89C1749.71 1409.94 1745.11 1440.24 1742.61 1470.84C1740.02 1502.45 1741.37 1533.95 1746.26 1565.21C1749.65 1586.79 1755.49 1607.8 1763.37 1628.26C1770.72 1647.32 1780.03 1665.34 1790.68 1682.72C1799.31 1696.8 1808.96 1710.17 1819.14 1723.14C1830.43 1737.53 1842.38 1751.34 1854.97 1764.6C1878.32 1789.18 1901.82 1813.59 1925.04 1838.3C1946.46 1861.08 1966.58 1884.97 1984.39 1910.76C2002.56 1937.03 2017.74 1964.95 2029.89 1994.48C2041.11 2021.8 2049.7 2049.98 2057.18 2078.52C2065.86 2111.59 2073.49 2144.95 2084.09 2177.52C2095.09 2211.34 2109.46 2243.53 2131.01 2272.13C2149.31 2296.4 2171.51 2316.43 2196.83 2333.14C2218.56 2347.51 2241.69 2359.13 2265.83 2368.79C2266.87 2369.21 2267.83 2369.83 2270.57 2371.27V2371.2Z" fill="white"/>
<path d="M1.5288 153.997C5.82225 158.38 8.52225 162.564 11.4214 166.593C21.2255 180.23 31.0296 193.867 40.8337 207.526C41.5198 208.478 42.0067 209.651 42.8919 210.382C53.5592 219.414 60.9067 231.324 70.069 241.662C94.4576 269.18 121.635 293.42 152.884 312.857C175.967 327.203 200.422 338.869 225.828 348.543C244.308 355.583 263.119 361.605 282.174 366.674C300.388 371.522 318.779 375.817 337.281 379.403C361.293 384.052 385.394 388.303 409.605 391.756C435.565 395.453 461.658 398.287 487.75 401.032C514.706 403.865 541.728 406.212 568.751 408.647C601.925 411.636 635.1 414.447 668.274 417.414C694.389 419.738 720.548 421.863 746.619 424.675C779.129 428.195 811.596 432.312 844.062 436.231C873.629 439.795 902.975 444.665 932.233 450.178C962.951 455.955 993.359 463.15 1023.28 472.204C1049.53 480.13 1075.2 489.715 1099.83 501.936C1120.75 512.318 1140.69 524.272 1158.88 538.994C1179.86 555.974 1197.92 575.588 1212.72 598.257C1229.12 623.361 1241.03 650.48 1250.97 678.683C1262.14 710.406 1270.75 742.904 1280.49 775.071C1294.17 820.298 1310.54 864.463 1330.37 907.366C1344.12 937.096 1359.36 966.031 1374.59 995.009C1388.31 1021.11 1401.81 1047.3 1413.19 1074.53C1422.75 1097.4 1430.58 1120.82 1436.25 1145.04C1444.26 1179.22 1446.27 1213.8 1445.1 1248.71C1443.79 1287.36 1440.14 1325.81 1434.65 1364.07C1431.05 1389.17 1426.73 1414.16 1422.73 1439.2C1416.84 1475.88 1410.42 1512.48 1406.66 1549.47C1403.49 1580.6 1401.92 1611.81 1404.62 1643.09C1408.12 1683.54 1418.32 1722.03 1437.82 1757.83C1446.85 1774.43 1457.36 1790.06 1469.05 1804.94C1493.9 1836.57 1522.63 1864.51 1551.73 1892.12C1581.87 1920.72 1612.68 1948.66 1640.32 1979.8C1658.56 2000.35 1675.11 2022.09 1689.27 2045.69C1707.35 2075.77 1720.01 2107.98 1728.36 2141.99C1733.43 2162.64 1736.74 2183.58 1739.07 2204.7C1741.72 2228.74 1743.3 2252.85 1744.73 2276.98C1746.53 2307 1747.97 2337.06 1751.9 2366.9C1752.3 2370 1751.37 2372.2 1750 2371.84C1747.79 2371.29 1747.72 2369.38 1747.57 2367.66C1745.97 2350.63 1744.14 2333.63 1742.9 2316.59C1741.26 2293.94 1740.33 2271.25 1738.69 2248.6C1736.39 2216.55 1733.34 2184.56 1726.39 2153.08C1718.71 2118.3 1706.8 2085.14 1689.14 2054.12C1676.7 2032.29 1662.16 2011.97 1645.94 1992.78C1622.88 1965.48 1597.23 1940.73 1571.29 1916.25C1548.36 1894.6 1525.13 1873.23 1503.28 1850.45C1480.8 1826.99 1459.8 1802.39 1442.49 1774.77C1422.95 1743.62 1410.42 1709.86 1404.14 1673.73C1399 1644.24 1398.29 1614.55 1399.84 1584.69C1401.88 1545.75 1407.54 1507.28 1413.7 1468.84C1420.53 1426.05 1428.04 1383.35 1432.99 1340.27C1437.22 1303.61 1439.68 1266.86 1439.81 1229.96C1439.94 1193.74 1434.96 1158.21 1424.65 1123.5C1417.26 1098.59 1407.81 1074.39 1396.26 1051.13C1381.85 1022.08 1366.89 993.326 1352.08 964.481C1333.89 929.06 1316.85 893.109 1302.2 856.05C1290.69 826.961 1281.09 797.253 1272.03 767.322C1264.86 743.613 1257.94 719.837 1250.46 696.238C1242.07 669.784 1231.76 644.104 1218.32 619.752C1205.26 596.087 1188.98 574.946 1169.39 556.284C1149.8 537.621 1127.67 522.678 1103.86 510.06C1082.7 498.858 1060.64 489.76 1038.04 482.012C1017.13 474.839 995.882 468.773 974.37 463.615C942.236 455.933 909.858 449.646 877.148 444.975C854.685 441.787 832.266 438.245 809.759 435.478C785.481 432.489 761.137 430.099 736.815 427.641C709.549 424.874 682.261 422.24 654.974 419.694C638.242 418.122 621.489 416.882 604.736 415.421C587.695 413.938 570.676 412.433 553.657 410.883C537.811 409.444 521.943 408.116 506.119 406.5C486.777 404.507 467.434 402.338 448.114 400.08C432.312 398.242 416.488 396.427 400.753 394.147C384.73 391.823 368.707 389.277 352.795 386.244C334.559 382.768 316.367 379.049 298.33 374.732C260.729 365.722 223.925 354.166 188.913 337.474C165.432 326.273 143.235 313.012 122.498 297.206C108.622 286.624 95.6969 275.024 83.3698 262.76C70.6223 250.075 59.1141 236.261 48.0042 222.093C46.0346 219.569 43.6001 217.377 41.4313 215.009C39.4616 212.839 37.337 210.758 35.6329 208.389C24.9878 193.535 14.4534 178.614 3.89683 163.693C3.05585 162.498 1.99355 161.303 1.61732 159.93C1.21896 158.425 1.5288 156.742 1.5288 154.041V153.997Z" fill="white"/>
<path d="M1.59521 294.66C5.60095 298.888 8.72145 301.943 11.5985 305.219C27.0239 322.797 44.2198 338.492 62.9207 352.461C80.183 365.345 98.6182 376.458 117.872 386.177C149.83 402.337 183.314 414.425 217.795 423.855C255.063 434.039 292.797 442.053 331.018 447.83C352.573 451.085 374.107 454.737 395.729 457.483C424.079 461.069 452.518 463.991 480.934 467.046C506.429 469.791 531.946 472.359 557.441 474.949C577.669 477.008 597.941 478.801 618.169 480.971C642.204 483.561 666.216 486.239 690.184 489.25C713.289 492.15 736.372 495.227 759.388 498.769C780.346 502.001 801.26 505.698 822.086 509.705C846.12 514.332 869.911 520.066 893.459 526.774C927.563 536.47 960.804 548.402 992.385 564.607C1011.29 574.303 1029.41 585.438 1045.99 598.788C1064.18 613.443 1080.47 630.002 1094.45 648.819C1112.16 672.639 1125.86 698.651 1137.1 726.013C1146.42 748.66 1154.5 771.749 1162.18 794.994C1175.99 836.724 1190.28 878.276 1208.27 918.412C1219.36 943.14 1231.58 967.403 1243.53 991.732C1258.09 1021.35 1273.47 1050.55 1286.95 1080.73C1300.45 1110.97 1310.76 1142.27 1319.11 1174.26C1324.97 1196.79 1330.57 1219.4 1334.51 1242.4C1338.47 1265.69 1341.17 1289.09 1342.66 1312.66C1344.47 1341.29 1343.74 1369.89 1342.01 1398.42C1340.69 1420.19 1338.3 1441.9 1336.04 1463.6C1332.85 1494.39 1329.35 1525.14 1325.99 1555.91C1323.29 1580.55 1321.63 1605.26 1321.63 1630.05C1321.63 1665.01 1325.06 1699.52 1334.89 1733.23C1342.19 1758.29 1352.68 1781.92 1366.29 1804.16C1381.45 1828.94 1399.86 1851.14 1419.8 1872.15C1438.48 1891.83 1458.2 1910.45 1477.88 1929.11C1499.9 1950.01 1521.78 1971.06 1543.14 1992.64C1565.58 2015.31 1585.79 2039.93 1602.87 2066.96C1618.7 2092 1631.16 2118.63 1639.99 2146.94C1649.44 2177.21 1654.97 2208.18 1657.85 2239.7C1660.17 2265.27 1661.9 2290.84 1662.89 2316.5C1663.51 2332.7 1664.69 2348.88 1665.59 2365.09C1665.84 2369.52 1664.93 2372.28 1663.4 2371.66C1660.55 2370.51 1661.08 2367.81 1660.97 2365.58C1659.77 2343.19 1658.58 2320.81 1657.49 2298.43C1656.19 2271.62 1654.31 2244.88 1650.81 2218.23C1647.49 2192.99 1642.11 2168.28 1634.26 2144.11C1624.36 2113.65 1610.15 2085.27 1592.1 2058.79C1574.74 2033.38 1554.92 2010.04 1533.12 1988.44C1511.56 1967.05 1489.47 1946.22 1467.52 1925.23C1443.44 1902.21 1419.38 1879.17 1397.54 1853.95C1378.18 1831.57 1361.29 1807.48 1348.34 1780.76C1337.37 1758.1 1329.46 1734.43 1324.51 1709.7C1318.84 1681.5 1317.16 1653.03 1317.49 1624.34C1317.78 1599.83 1319.59 1575.41 1322.16 1551.09C1325.66 1517.95 1329.58 1484.87 1332.98 1451.73C1334.73 1434.73 1335.84 1417.64 1337.19 1400.59C1338.69 1381.75 1338.92 1362.89 1338.65 1344.01C1338.14 1307.95 1334.47 1272.22 1327.47 1236.82C1322.38 1211.05 1315.54 1185.75 1308.35 1160.49C1298.37 1125.51 1285.56 1091.66 1269.51 1059.03C1257.14 1033.9 1244.64 1008.84 1232.22 983.762C1215.33 949.67 1198.71 915.445 1185.41 879.759C1175.52 853.238 1166.14 826.54 1156.93 799.776C1147.06 771.041 1137.32 742.284 1124.77 714.568C1108.33 678.262 1087.13 645.166 1057.83 617.737C1039.68 600.736 1019.58 586.457 997.896 574.237C968.196 557.501 936.637 545.325 904.281 535.053C876.174 526.132 847.492 519.291 818.589 513.402C781.608 505.853 744.361 499.898 706.915 495.227C681.774 492.106 656.611 488.962 631.426 486.217C602.124 483.007 572.8 480.218 543.477 477.229C518.845 474.706 494.213 472.16 469.603 469.525C451.433 467.577 433.264 465.651 415.138 463.415C396.127 461.069 377.117 458.744 358.217 455.756C332.301 451.66 306.452 447.188 280.669 442.429C257.476 438.156 234.592 432.445 211.863 426.136C187.408 419.361 163.507 410.993 140.158 401.031C104.394 385.801 71.2641 366.253 41.6305 340.972C28.6174 329.859 16.5337 317.749 5.26899 304.865C3.91898 303.316 2.45833 301.766 1.55095 299.973C1.04193 298.977 1.55095 297.471 1.66161 294.682L1.59521 294.66Z" fill="white"/>
<path d="M2.19273 408.691C6.06569 411.215 10.005 413.694 13.8559 416.284C42.4272 435.411 73.2559 450.022 105.368 462.109C143.257 476.366 182.185 486.881 221.756 495.139C247.716 500.54 273.72 505.765 299.835 510.369C321.014 514.111 342.349 516.922 363.639 519.933C390.772 523.763 417.927 527.46 445.082 531.068C462.609 533.393 480.182 535.274 497.709 537.665C537.413 543.089 577.249 547.694 616.709 554.866C640.478 559.183 664.357 562.947 688.015 567.817C732.809 577.048 776.96 588.671 819.74 605.119C848.422 616.143 875.931 629.537 901.559 646.627C923.756 661.437 943.697 678.882 961.07 699.093C979.416 720.434 994.156 744.188 1006.39 769.536C1021.55 800.905 1033.48 833.58 1045.17 866.344C1057.94 902.163 1070.93 937.915 1086 972.848C1096.4 996.934 1107.16 1020.86 1118.4 1044.57C1130.15 1069.32 1142.57 1093.79 1154.94 1118.25C1163.97 1136.14 1173.46 1153.78 1182.62 1171.62C1195.42 1196.53 1207.46 1221.83 1217.72 1247.89C1230.38 1280.05 1239.92 1313.15 1245.3 1347.4C1251.32 1385.72 1252.78 1424.21 1251.25 1462.91C1250.1 1492.4 1247.71 1521.78 1245.46 1551.17C1242.64 1587.61 1239.55 1624.07 1240.1 1660.67C1240.59 1692.61 1243.66 1724.22 1251.54 1755.28C1259.88 1788.18 1273.63 1818.6 1292.15 1847C1309.3 1873.32 1329.82 1896.83 1351.95 1918.97C1366.73 1933.76 1381.94 1948.15 1396.94 1962.74C1415.78 1981 1434.92 1998.95 1453.33 2017.64C1478.85 2043.52 1502.11 2071.3 1521.16 2102.4C1539.95 2133.06 1553.37 2165.94 1561.86 2200.87C1568.77 2229.34 1572.8 2258.21 1574.55 2287.41C1576.12 2313.6 1577.38 2339.81 1578.73 2366.02C1578.79 2367.48 1578.86 2369.01 1578.55 2370.4C1578.42 2371 1577.27 2371.73 1576.58 2371.73C1575.92 2371.73 1574.77 2370.96 1574.66 2370.36C1574.26 2368.06 1574.15 2365.69 1574.04 2363.34C1572.73 2338.3 1571.78 2313.26 1570.05 2288.25C1567.49 2251.39 1562.28 2214.95 1550.95 2179.62C1544.09 2158.26 1535.55 2137.62 1524.64 2117.94C1514.3 2099.3 1502.53 2081.7 1489.38 2065.03C1475.88 2047.9 1461.41 2031.54 1445.81 2016.29C1422.84 1993.82 1399.73 1971.52 1376.54 1949.28C1355.89 1929.46 1335.53 1909.41 1316.96 1887.6C1288.79 1854.5 1266.46 1817.96 1252.82 1776.47C1246.65 1757.67 1242.51 1738.35 1239.75 1718.76C1236.07 1692.68 1235.23 1666.45 1236.05 1640.19C1236.85 1614.27 1238.44 1588.37 1240.1 1562.46C1241.96 1533.33 1244.7 1504.26 1246.21 1475.13C1248 1440.64 1247.56 1406.13 1243.51 1371.77C1238.17 1326.68 1226.27 1283.37 1208.52 1241.56C1194.91 1209.48 1178.91 1178.6 1162.62 1147.87C1144.82 1114.29 1126.72 1080.84 1110.48 1046.46C1101.91 1028.33 1093.7 1010.04 1085.82 991.599C1076.66 970.192 1067.7 948.674 1059.29 926.979C1051.19 906.103 1043.91 884.895 1036.2 863.864C1030.52 848.368 1024.92 832.827 1018.96 817.442C1006.15 784.368 990.902 752.49 970.475 723.356C960.317 708.856 948.588 695.596 935.884 683.221C915.9 663.762 893.282 647.867 868.96 634.385C853.999 626.083 838.485 618.911 822.639 612.469C777.16 594.006 729.976 581.343 682.04 571.16C643.089 562.88 603.873 556.217 564.479 550.66C522.74 544.771 480.934 539.569 439.15 533.99C415.78 530.869 392.431 527.77 369.105 524.383C344.34 520.796 319.554 517.166 294.877 513.026C261.172 507.381 227.621 500.872 194.402 492.814C166.34 486.018 138.499 478.27 111.299 468.485C79.8731 457.173 49.5977 443.403 21.0706 425.958C15.0288 422.261 9.18618 418.299 3.32142 414.336C1.48454 413.096 0.355848 411.392 2.21487 408.757L2.19273 408.691Z" fill="white"/>
<path d="M554.919 2.22074C561.912 0.0733854 566.582 1.53447 571.251 3.54901C581.808 8.08724 592.364 12.6255 603.054 16.8538C614.562 21.4141 626.159 25.7753 637.822 29.8929C650.06 34.1876 662.41 38.1281 674.737 42.1129C702.799 51.1894 731.171 59.2032 759.875 65.8667C787.141 72.1981 814.517 78.2195 841.96 83.6875C881.574 91.5685 921.433 98.0992 961.424 103.811C1008.7 110.541 1056.03 116.894 1103.33 123.425C1131.94 127.365 1160.56 131.217 1189.15 135.291C1218.03 139.408 1246.96 143.26 1275.71 148.086C1314.64 154.617 1353.52 161.413 1392.03 170.379C1423.63 177.751 1454.95 186.008 1485.64 196.457C1516.67 207.017 1546.77 219.812 1575.01 236.659C1598.4 250.606 1619.98 266.899 1638.53 287.022C1657.74 307.854 1672.34 331.541 1682.79 357.863C1693.3 384.362 1699.21 411.968 1703.15 440.083C1707.47 470.788 1709.15 501.692 1710.63 532.618C1712.38 569.455 1714.52 606.248 1719.53 642.798C1721.41 656.501 1724.2 670.115 1727.12 683.664C1736.01 724.773 1750.24 764.09 1768.46 801.901C1782.64 831.367 1797.52 860.522 1812.06 889.832C1826.86 919.718 1840.21 950.268 1849.83 982.235C1860.52 1017.72 1866.43 1054.05 1866.61 1091.17C1866.68 1105.32 1866.63 1119.51 1865.86 1133.61C1865.13 1146.85 1863.56 1160.05 1861.94 1173.22C1856.52 1217.14 1847.47 1260.42 1838.66 1303.76C1832.44 1334.38 1826.69 1365.11 1822.7 1396.12C1818.54 1428.64 1816.84 1461.32 1818.72 1494.1C1820.53 1525.8 1826.27 1556.73 1836.84 1586.68C1844.13 1607.32 1853.93 1626.82 1865.35 1645.48C1878.14 1666.4 1893.08 1685.75 1908.99 1704.39C1930.08 1729.05 1952.74 1752.23 1975.19 1775.63C1997.23 1798.61 2018.96 1821.87 2039.23 1846.47C2076.13 1891.23 2104.81 1940.71 2125.48 1994.9C2134.62 2018.88 2142.56 2043.25 2150.66 2067.58C2159.49 2094.17 2168.88 2120.56 2180.56 2146.04C2192.29 2171.65 2207.16 2195.29 2225.67 2216.52C2235.54 2227.86 2246.65 2238.04 2258.51 2247.36C2283.27 2266.84 2310.74 2281.54 2339.75 2293.45C2349 2297.26 2358.54 2300.4 2367.9 2303.94C2369.16 2304.43 2370.27 2305.45 2371.31 2306.4C2371.6 2306.67 2371.58 2307.58 2371.38 2308.06C2371.18 2308.51 2370.56 2309.08 2370.14 2309.08C2368.99 2309.06 2367.84 2308.86 2366.73 2308.53C2349.69 2303.61 2333.42 2296.73 2317.33 2289.36C2299.61 2281.23 2282.63 2271.78 2266.72 2260.49C2247.64 2246.96 2230.38 2231.49 2215.53 2213.27C2205.42 2200.87 2196.54 2187.68 2188.57 2173.91C2180.92 2160.63 2174.65 2146.63 2168.7 2132.49C2156.93 2104.44 2148.01 2075.4 2138.51 2046.57C2127.25 2012.39 2115.08 1978.56 2099.03 1946.31C2085.33 1918.79 2069.13 1892.8 2050.65 1868.23C2031.84 1843.21 2011.13 1819.84 1989.73 1797.08C1975.19 1781.63 1960.38 1766.44 1945.75 1751.08C1925.41 1729.74 1905.38 1708.11 1887.39 1684.71C1866.83 1657.94 1849.26 1629.48 1836.78 1597.91C1827.48 1574.44 1821.42 1550.29 1817.83 1525.36C1813.47 1495.12 1813.25 1464.77 1815.24 1434.42C1817.28 1403.52 1821.99 1372.88 1827.9 1342.46C1834.98 1306 1842.18 1269.58 1849.13 1233.1C1855.37 1200.34 1860.13 1167.37 1862.27 1134.08C1864.13 1105.45 1863.62 1076.87 1860.08 1048.4C1857.89 1030.85 1854.42 1013.49 1849.81 996.381C1839.88 959.478 1824.85 924.611 1807.96 890.474C1793.2 860.611 1778.04 830.946 1763.57 800.949C1748.03 768.739 1735.73 735.245 1726.85 700.599C1721.14 678.306 1716.92 655.682 1714.22 632.813C1711.27 607.909 1709.37 582.937 1708.08 557.899C1706.67 530.227 1705.12 502.533 1702.86 474.927C1700.49 445.816 1696.24 416.926 1688.37 388.701C1677.99 351.51 1660.95 317.882 1634.5 289.391C1615.69 269.113 1593.87 252.687 1570.14 238.674C1546.2 224.55 1520.9 213.392 1494.83 203.829C1465.46 193.07 1435.47 184.481 1405.11 177.064C1370.16 168.541 1334.89 161.612 1299.41 155.746C1268.89 150.698 1238.31 146.005 1207.7 141.467C1184.97 138.102 1162.18 135.18 1139.4 132.147C1116.63 129.114 1093.81 126.303 1071.04 123.203C1043.31 119.418 1015.58 115.455 987.87 111.515C966.868 108.526 945.821 105.825 924.885 102.35C890.294 96.5938 855.703 90.7937 821.267 84.1524C788.292 77.7989 755.56 70.1614 723.093 61.4613C689.188 52.3848 655.77 41.8472 622.728 30.0478C603.01 23.0081 583.645 15.1049 564.457 6.78111C561.801 5.62995 559.212 4.30169 554.852 2.24288L554.919 2.22074Z" fill="white"/>
<path d="M1.24109 496.18C9.54027 499.766 16.2681 502.71 22.996 505.61C43.8657 514.598 65.1559 522.324 86.8666 529.076C129.69 542.403 173.244 552.786 217.131 561.774C240.501 566.555 263.982 570.784 287.419 575.189C303.929 578.288 320.439 581.343 336.971 584.288C359.013 588.206 381.1 591.925 403.143 595.844C418.236 598.522 433.286 601.312 448.335 604.167C474.383 609.148 500.498 613.93 526.458 619.332C552.728 624.778 578.732 631.286 604.581 638.525C629.589 645.521 654.133 653.844 678.145 663.651C711.541 677.31 743.365 693.98 772.069 716.096C802.278 739.362 827.309 767.278 847.227 799.865C858.624 818.527 868.628 837.942 876.75 858.176C890.693 892.91 903.728 928.02 917.25 962.931C928.094 990.98 939.868 1018.65 953.7 1045.39C969.147 1075.3 986.476 1104.08 1005.95 1131.53C1027.64 1162.06 1049.66 1192.32 1071.28 1222.89C1087.28 1245.52 1102.02 1268.98 1114.97 1293.51C1129.6 1321.25 1141.24 1350.14 1149.1 1380.58C1154.78 1402.63 1158.44 1424.95 1160.71 1447.59C1164.19 1482.04 1164.08 1516.48 1162.57 1551C1161.14 1583.69 1159.21 1616.37 1158.21 1649.09C1157.62 1668.81 1157.9 1688.61 1158.57 1708.35C1159.67 1741.2 1164.68 1773.53 1174.55 1804.94C1183.33 1832.94 1195.88 1859.2 1212.01 1883.77C1229.25 1910 1249.37 1933.85 1271.41 1956.1C1285.93 1970.75 1300.69 1985.16 1315.48 1999.55C1338.69 2022.2 1362.13 2044.62 1383.77 2068.82C1411.86 2100.19 1436.11 2134.13 1453.47 2172.71C1466.61 2201.93 1475.26 2232.48 1480.64 2264.01C1484.29 2285.55 1486.6 2307.24 1487.92 2329.03C1488.65 2341.09 1489.56 2353.16 1490.31 2365.22C1490.6 2369.83 1489.56 2372.22 1487.79 2371.69C1484.56 2370.71 1485.82 2367.81 1485.67 2365.69C1484.43 2348.62 1483.54 2331.53 1482.1 2314.51C1479.27 2280.63 1474.09 2247.14 1464.02 2214.6C1455.35 2186.62 1443.31 2160.12 1427.93 2135.1C1405.49 2098.66 1377.27 2067.05 1347.19 2036.99C1324.26 2014.07 1300.74 1991.74 1277.7 1968.94C1256.94 1948.39 1237.29 1926.83 1219.89 1903.3C1199.24 1875.34 1182.85 1845.1 1171.91 1812.11C1163.84 1787.69 1158.72 1762.57 1156.18 1736.93C1152.75 1702.51 1152.7 1668.04 1154.36 1633.53C1155.69 1605.83 1157.28 1578.16 1158.35 1550.47C1159.39 1523.06 1159.65 1495.61 1157.84 1468.22C1155.31 1430.13 1148.96 1392.67 1136.35 1356.5C1127.98 1332.52 1117.4 1309.52 1104.97 1287.34C1086.75 1254.86 1065.29 1224.58 1043.4 1194.54C1024.12 1168.08 1004.34 1142.03 986.144 1114.82C963.991 1081.66 944.825 1046.86 928.493 1010.48C915.435 981.416 904.48 951.508 893.038 921.799C884.562 899.794 876.174 877.745 867.012 856.028C855.637 829.064 841.495 803.518 824.144 779.874C810.157 760.814 794.024 743.679 775.92 728.382C761.247 715.963 745.601 704.916 729.002 695.331C706.008 682.048 682.106 670.603 657.098 661.46C641.031 655.593 624.986 649.749 608.587 644.879C583.711 637.485 558.637 630.821 533.296 625.375C502.755 618.823 472.126 612.757 441.452 606.912C409.915 600.891 378.268 595.423 346.686 589.667C310.458 583.048 274.207 576.606 238.067 569.655C191.458 560.689 145.226 550.085 99.6584 536.736C78.4567 530.537 57.3657 523.94 37.005 515.218C27.2673 511.034 17.419 507.071 7.65913 502.932C5.77798 502.135 3.98535 501.072 2.30338 499.943C1.83863 499.611 1.88289 498.526 1.28535 496.224L1.24109 496.18Z" fill="white"/>
<path d="M1.44025 573.108C2.94517 571.536 4.3173 572.378 5.6673 572.82C10.9788 574.591 16.2681 576.407 21.5575 578.222C50.837 588.295 80.5813 596.862 110.591 604.344C151.467 614.528 192.432 624.335 233.419 634.053C272.126 643.24 310.967 651.941 349.652 661.194C395.818 672.241 441.563 684.837 486.4 700.511C518.977 711.912 550.868 725.106 581.078 741.952C602.213 753.752 622.219 767.212 640.566 783.151C665.928 805.2 686.997 830.703 704.547 859.327C722.341 888.349 736.062 919.32 749.208 950.6C762.221 981.571 775.057 1012.65 789.996 1042.76C804.049 1071.05 820.028 1098.26 838.197 1124.12C853.468 1145.83 870.066 1166.53 887.594 1186.46C901.625 1202.39 915.811 1218.18 930.13 1233.83C951.221 1256.88 972.135 1280.08 991.234 1304.85C1013.12 1333.21 1032.02 1363.4 1045.99 1396.43C1057.76 1424.26 1065.88 1453.17 1070.13 1483.12C1071.7 1494.21 1073.41 1505.33 1074.23 1516.48C1075.33 1531.47 1076.15 1546.53 1076.15 1561.53C1076.15 1589.25 1075.53 1616.97 1074.98 1644.66C1074.43 1673.26 1072.96 1701.84 1074.38 1730.47C1075.47 1752.58 1077.04 1774.61 1080.87 1796.46C1087.04 1831.57 1097.88 1865.13 1114.77 1896.57C1127.21 1919.72 1142.08 1941.31 1158.92 1961.59C1178.35 1984.98 1199.49 2006.75 1220.82 2028.35C1237.4 2045.11 1254.33 2061.52 1270.77 2078.41C1289.1 2097.2 1306.23 2117.08 1322.01 2138.09C1332.28 2151.77 1341.46 2166.2 1349.8 2181.17C1360.58 2200.54 1369.41 2220.77 1376.47 2241.78C1384.68 2266.18 1390.04 2291.26 1393.69 2316.67C1395.84 2331.55 1397.16 2346.54 1398.78 2361.5C1399.07 2364.14 1399.22 2366.82 1399.07 2369.45C1399.02 2370.27 1397.76 2371 1397.08 2371.78C1396.28 2371.04 1395.04 2370.42 1394.8 2369.54C1394.26 2367.57 1394.13 2365.49 1393.98 2363.43C1392.05 2337.22 1388.44 2311.25 1383.02 2285.53C1372.29 2234.61 1351.73 2188.03 1321.32 2145.79C1304.74 2122.77 1286.31 2101.34 1266.61 2081C1247.76 2061.52 1228.33 2042.61 1209.31 2023.28C1188.02 2001.63 1167 1979.74 1148.12 1955.87C1133.83 1937.79 1121.03 1918.68 1110.23 1898.34C1094.08 1867.92 1083.32 1835.58 1077.1 1801.68C1071.48 1771.11 1069.47 1740.21 1069.67 1709.22C1069.87 1676.5 1070.91 1643.75 1071.48 1611.03C1071.99 1581.83 1072.23 1552.64 1070 1523.48C1067.12 1485.96 1060.26 1449.25 1047.09 1413.85C1038.33 1390.28 1026.98 1367.96 1013.56 1346.73C995.572 1318.24 974.592 1291.99 952.062 1266.99C931.724 1244.46 910.942 1222.32 890.692 1199.72C862.342 1168.06 835.652 1135.12 813.101 1098.95C799.822 1077.67 787.982 1055.67 777.005 1033.11C762.155 1002.58 749.717 971.033 736.195 939.952C726.767 918.324 717.051 896.828 705.455 876.284C691.357 851.313 675.069 827.869 655.239 807.059C637.047 787.977 616.731 771.44 594.445 757.382C569.459 741.598 543.034 728.67 515.702 717.468C472.524 699.736 428.085 685.944 383.004 674.145C348.236 665.046 313.313 656.523 278.367 648.111C250.017 641.27 221.49 635.182 193.14 628.364C161.072 620.638 129.049 612.624 97.0911 604.455C67.6788 596.928 38.7091 587.918 9.98287 578.133C7.48205 577.292 5.02549 576.252 2.63533 575.123C2.05992 574.835 1.86074 573.772 1.50664 573.13L1.44025 573.108Z" fill="white"/>
<path d="M1.4845 642.997C3.58696 641.071 5.51237 642.377 7.37139 642.953C24.8771 648.155 42.3386 653.49 59.8665 658.626C83.3477 665.489 106.873 672.174 130.354 678.993C162.887 688.423 195.464 697.766 227.953 707.418C263.54 717.999 298.772 729.732 333.319 743.369C369.813 757.781 405.422 774.096 439.018 794.596C469.625 813.258 497.754 835.041 522.275 861.253C538.829 878.941 553.303 898.223 566.183 918.811C578.09 937.849 588.447 957.662 598.141 977.874C609.494 1001.52 620.803 1025.18 632.378 1048.71C648.268 1081.04 666.083 1112.29 687.152 1141.52C703.352 1164.01 721.057 1185.28 740.112 1205.49C764.39 1231.26 790.239 1255.39 816.044 1279.57C835.829 1298.1 855.482 1316.78 874.581 1336C893.083 1354.61 910.102 1374.58 925.173 1396.17C944.914 1424.41 960.184 1454.92 970.387 1487.77C978.177 1512.88 982.802 1538.71 985.414 1564.92C989.22 1603.15 988.579 1641.47 988.402 1679.82C988.269 1708.13 988.225 1736.42 988.778 1764.74C989.398 1795.77 993.381 1826.46 1000.33 1856.74C1006.37 1883.04 1015.69 1908.17 1027.91 1932.14C1040.39 1956.63 1055.75 1979.32 1072.96 2000.75C1092.57 2025.12 1114.17 2047.68 1135.82 2070.22C1159.3 2094.66 1183.2 2118.67 1205.22 2144.51C1230.96 2174.73 1253.31 2207.16 1270.11 2243.2C1285.27 2275.72 1295.12 2309.92 1301.56 2345.17C1302.82 2352.12 1303.84 2359.13 1304.88 2366.13C1305.1 2367.57 1305.08 2369.05 1304.99 2370.51C1304.97 2370.93 1304.28 2371.64 1303.86 2371.66C1303.06 2371.73 1301.8 2371.66 1301.49 2371.18C1300.74 2369.98 1300.14 2368.56 1299.96 2367.15C1297.51 2348.11 1293.61 2329.34 1288.74 2310.81C1279.49 2275.54 1265.75 2242.11 1246.92 2210.81C1230.89 2184.18 1212.01 2159.76 1191.54 2136.47C1169.74 2111.66 1146.4 2088.3 1123.49 2064.53C1106.91 2047.32 1090.69 2029.81 1075.35 2011.51C1055.99 1988.42 1038.75 1963.8 1024.81 1937.01C1011.4 1911.27 1001.66 1884.15 995.107 1855.83C987.848 1824.35 984.639 1792.41 983.953 1760.22C983.356 1731.33 983.444 1702.44 983.732 1673.55C984.02 1644.95 984.152 1616.35 982.382 1587.79C980.213 1552.66 974.747 1518.08 963.637 1484.52C953.257 1453.21 938.208 1424.33 919.242 1397.43C900.297 1370.57 878.188 1346.47 854.486 1323.84C827.641 1298.21 800.087 1273.28 773.242 1247.67C748.721 1224.27 724.908 1200.14 703.419 1173.81C681.199 1146.59 661.06 1117.9 644.328 1086.95C634.524 1068.82 624.897 1050.55 615.669 1032.11C606.838 1014.47 598.716 996.47 590.107 978.693C576.209 950.003 560.695 922.198 541.773 896.474C527.055 876.505 510.346 858.308 491.845 841.705C461.99 814.918 428.483 793.755 392.941 775.58C370.345 764.024 347.129 753.863 323.515 744.631C295.785 733.806 267.7 723.999 239.24 715.254C220.649 709.543 202.126 703.676 183.469 698.208C155.473 689.995 127.367 682.181 99.3706 673.99C69.1173 665.135 38.9526 656.036 8.74352 647.026C6.77385 646.428 4.78204 645.808 2.92302 644.967C2.28122 644.679 1.94925 643.661 1.4845 642.997Z" fill="white"/>
<path d="M2370.32 2199.81C2362.06 2195.6 2354.96 2190.4 2347.87 2185.22C2312.95 2159.74 2286.39 2127.11 2265.83 2089.28C2251.18 2062.29 2239.39 2034 2227.66 2005.68C2213.87 1972.43 2199.53 1939.45 2181.82 1908.08C2166.89 1881.6 2149.87 1856.48 2130.68 1832.85C2108.53 1805.58 2084.36 1780.21 2059.42 1755.51C2037.64 1733.92 2016 1712.2 1994.73 1690.11C1974.88 1669.48 1956.64 1647.45 1940.44 1623.81C1923.18 1598.59 1909.77 1571.39 1900.54 1542.27C1893.65 1520.58 1889.45 1498.26 1887.37 1475.57C1884.51 1444.32 1885.51 1413.17 1888.34 1381.93C1891.64 1345.47 1897.79 1309.5 1904.57 1273.59C1911.69 1235.65 1918.99 1197.7 1924.09 1159.4C1925.99 1145.1 1926.78 1130.65 1928.25 1116.28C1930.22 1096.86 1930.13 1077.41 1929.46 1057.95C1928.69 1035.52 1925.77 1013.34 1921.23 991.334C1914.33 957.95 1903.28 925.961 1889.03 895.101C1878.03 871.281 1866.26 847.859 1855.01 824.15C1844.28 801.503 1833.37 778.944 1823.32 756.01C1813.01 732.5 1805.15 708.082 1798.6 683.243C1792.67 660.663 1788.27 637.794 1785.46 614.661C1783.04 594.781 1781.43 574.746 1780.41 554.734C1778.93 525.578 1778.33 496.379 1777.24 467.201C1776.16 437.714 1773.99 408.293 1768.88 379.182C1764.9 356.491 1758.96 334.331 1750.09 312.968C1735.08 276.795 1712.05 246.798 1681.97 221.849C1661.19 204.604 1638.37 190.635 1614.38 178.526C1583.8 163.073 1551.82 151.053 1519.06 141.091C1501.6 135.778 1484.14 130.398 1466.5 125.749C1446.56 120.503 1426.53 115.566 1406.35 111.338C1365.69 102.815 1325.02 94.4023 1284.18 86.8312C1242.47 79.083 1200.53 72.5966 1158.72 65.2248C1116.63 57.8086 1074.54 50.3704 1032.6 42.2458C998.759 35.6709 965.075 28.2991 931.436 20.7722C910.743 16.1455 890.25 10.5668 869.668 5.40867C866.614 4.63385 863.515 3.92544 859.576 1.62312C866.016 0.693338 871.129 0.759751 876.263 2.06588C895.96 7.11327 915.612 12.4485 935.397 17.031C962.088 23.2295 988.889 29.0296 1015.69 34.6747C1063.29 44.681 1111.16 53.2261 1159.1 61.5056C1190.17 66.8851 1221.29 71.9768 1252.32 77.6661C1288.26 84.241 1324.09 91.3473 1359.98 98.1657C1395.31 104.896 1430.29 113.02 1465.08 122.008C1509.63 133.52 1553.5 147.179 1595.7 165.752C1617.59 175.382 1638.77 186.407 1658.71 199.623C1687.26 218.506 1712.25 241.197 1731.63 269.6C1746.06 290.697 1756.29 313.809 1763.55 338.293C1771.03 363.575 1775.05 389.454 1777.64 415.598C1780.23 441.721 1780.98 467.976 1781.69 494.209C1782.6 527.239 1783.35 560.268 1786.61 593.165C1788.82 615.48 1792.21 637.595 1796.81 659.578C1802.78 688.246 1811.44 716.073 1822.04 743.303C1831.13 766.658 1841.87 789.305 1852.98 811.775C1862.38 830.791 1871.83 849.807 1881.11 868.89C1893.74 894.902 1904.99 921.511 1913.88 949.029C1919.97 967.846 1924.51 987.083 1927.69 1006.59C1932.52 1036.07 1934.27 1065.8 1932.87 1095.65C1931.68 1120.99 1929.57 1146.28 1925.39 1171.31C1921.21 1196.31 1916.91 1221.28 1912.55 1246.25C1908.39 1270.05 1903.81 1293.78 1899.9 1317.62C1895.58 1343.81 1892.17 1370.11 1890.51 1396.63C1889.49 1412.84 1888.87 1429.04 1889.23 1445.27C1890.03 1482.7 1895.87 1519.3 1908.95 1554.45C1918.33 1579.71 1931.19 1603.22 1946.48 1625.42C1957.04 1640.74 1968.7 1655.22 1980.94 1669.15C1992.8 1682.63 2005.42 1695.49 2018.03 1708.29C2034.39 1724.87 2051.21 1740.98 2067.56 1757.54C2093.26 1783.55 2118.64 1809.85 2141.1 1838.81C2163.41 1867.54 2183.13 1897.92 2199.09 1930.61C2208.51 1949.94 2217.52 1969.49 2226.31 1989.12C2232.46 2002.83 2237.68 2016.93 2243.75 2030.7C2254.08 2054.19 2264.99 2077.39 2278.23 2099.41C2291.2 2121 2306.58 2140.75 2324.7 2158.23C2336.81 2169.92 2349.95 2180.39 2364.12 2189.54C2366.33 2190.98 2368.52 2192.5 2370.49 2194.23C2371.95 2195.51 2372.2 2197.26 2370.27 2199.76L2370.32 2199.81Z" fill="white"/>
<path d="M0.709887 710.649C5.60087 712.243 8.65497 713.173 11.6648 714.213C50.4386 727.43 89.3452 740.203 127.898 753.995C167.335 768.097 205.91 784.39 243.135 803.628C269.891 817.441 295.63 833.004 319.686 851.179C338.52 865.414 356.114 881.043 372.381 898.222C395.618 922.773 414.961 950.135 432.489 978.914C443.687 997.31 453.491 1016.46 463.605 1035.43C478.168 1062.75 492.154 1090.38 508.023 1116.96C526.967 1148.67 548.257 1178.66 572.69 1206.38C592.608 1228.98 613.787 1250.3 636.649 1269.87C660.838 1290.55 685.448 1310.74 709.947 1331.06C738.983 1355.17 768.241 1379.01 794.953 1405.77C814.384 1425.23 831.846 1446.24 846.74 1469.42C865.264 1498.24 878.078 1529.39 886.399 1562.51C891.511 1582.87 894.499 1603.55 896.38 1624.43C899.877 1662.66 899.501 1701.02 899.633 1739.37C899.744 1767.68 899.722 1795.99 901.891 1824.26C904.281 1855.52 909.017 1886.38 917.958 1916.47C926.833 1946.31 939.691 1974.38 956.024 2000.88C970.763 2024.81 987.826 2046.99 1006.42 2067.98C1023.63 2087.39 1041.34 2106.34 1059.04 2125.34C1077.55 2145.17 1096.2 2164.88 1113.55 2185.73C1134.51 2210.92 1153.57 2237.4 1169.12 2266.4C1184.28 2294.6 1196.04 2324.05 1204.18 2354.97C1205.46 2359.82 1206.73 2364.67 1207.85 2369.54C1208.01 2370.18 1207.19 2371.66 1206.81 2371.66C1205.77 2371.66 1204.16 2371.4 1203.8 2370.71C1202.76 2368.63 1202.12 2366.33 1201.52 2364.07C1196.74 2346.09 1191.26 2328.36 1184.37 2311.09C1173.4 2283.6 1159.52 2257.65 1142.97 2233.15C1131.08 2215.55 1117.98 2198.88 1104.21 2182.7C1080.11 2154.38 1054.04 2127.91 1028.84 2100.63C1008.63 2078.76 988.91 2056.47 971.183 2032.47C946.286 1998.78 926.722 1962.25 914.306 1922.16C908.552 1903.56 904.546 1884.52 901.603 1865.24C895.738 1826.61 895.119 1787.72 894.787 1748.78C894.543 1720.46 894.787 1692.15 893.968 1663.83C893.127 1634.04 890.206 1604.37 883.92 1575.17C876.794 1542.08 865.131 1510.64 847.846 1481.51C837.622 1464.26 825.693 1448.17 812.569 1432.91C790.372 1407.12 765.209 1384.43 739.182 1362.67C712.072 1339.98 684.43 1317.93 657.142 1295.44C633.705 1276.11 610.977 1255.99 589.642 1234.34C555.14 1199.32 525.285 1160.66 500.299 1118.29C488.016 1097.46 476.596 1076.16 465.42 1054.74C453.978 1032.8 442.404 1010.9 430.054 989.474C418.126 968.797 405.223 948.696 390.395 929.901C373.93 909.025 355.959 889.588 335.842 872.144C302.446 843.143 265.155 820.164 225.784 800.395C200.222 787.556 174.085 775.933 147.329 765.861C118.381 754.947 89.2345 744.608 60.0657 734.27C42.5599 728.072 24.8992 722.404 7.30497 716.471C5.64514 715.918 3.96317 715.298 2.41399 714.457C1.86071 714.169 1.72792 713.106 0.643494 710.671L0.709887 710.649Z" fill="white"/>
<path d="M1203.98 2.48581C1208.87 0.759065 1213.41 1.20182 1218.08 2.33084C1247.29 9.37063 1276.55 16.2776 1305.81 23.1624C1337.34 30.5786 1368.95 37.7955 1400.44 45.3666C1432.51 53.0483 1464.58 60.7523 1496.51 69.0096C1525.59 76.5143 1554.52 84.7938 1583 94.3794C1619.34 106.599 1655.13 120.192 1689.1 138.19C1720.26 154.727 1749.29 174.186 1773.97 199.666C1799.86 226.409 1818.3 257.601 1829.54 293.043C1837.15 317.018 1841.29 341.68 1843.55 366.74C1846.47 399.105 1846.23 431.537 1846.38 463.991C1846.49 486.416 1846.38 508.842 1847.11 531.223C1848.33 569.322 1852.51 607.133 1861.28 644.28C1865.81 663.496 1871.57 682.401 1878.3 700.997C1889.05 730.684 1902.18 759.308 1915.92 787.71C1929.02 814.763 1942.37 841.704 1954.85 869.044C1961.55 883.766 1966.93 899.107 1972.42 914.36C1976.09 924.61 1979.19 935.081 1982.02 945.597C1987.8 966.982 1991.65 988.699 1993.75 1010.77C1995.88 1033.15 1996.21 1055.55 1995.21 1077.94C1994.31 1098.55 1992.56 1119.13 1989.55 1139.57C1986.72 1158.8 1983.95 1178.06 1980.87 1197.26C1977.4 1218.8 1973.48 1240.25 1969.96 1261.77C1965.71 1287.67 1961.97 1313.61 1959.56 1339.76C1957.7 1359.73 1956.44 1379.72 1956.31 1399.8C1956.06 1436.32 1960.58 1472.14 1971.58 1507.05C1976.82 1523.7 1983.97 1539.51 1992.12 1554.91C2010.33 1589.41 2034.92 1619.05 2061.79 1646.96C2084.69 1670.76 2109.17 1692.94 2133.4 1715.39C2155.02 1735.43 2176.58 1755.55 2196.94 1776.87C2222.83 1804.01 2246.71 1832.77 2267.58 1864C2283.65 1888.04 2298.1 1913.01 2311.89 1938.41C2325.39 1963.27 2339.4 1987.86 2353.45 2012.41C2357.83 2020.07 2363.26 2027.11 2368.01 2034.55C2369.56 2036.99 2370.74 2039.73 2371.69 2042.48C2372.06 2043.58 2371.42 2045.07 2371.07 2047.59C2369.21 2045.71 2368.12 2044.82 2367.33 2043.74C2357.83 2030.94 2349.31 2017.5 2341.63 2003.56C2329 1980.58 2316.56 1957.47 2304.03 1934.44C2283.56 1896.85 2261.47 1860.3 2234.74 1826.77C2217.63 1805.31 2199.6 1784.64 2179.81 1765.62C2154.09 1740.89 2127.96 1716.61 2102.26 1691.88C2084.65 1674.92 2066.99 1657.97 2050.14 1640.23C2025.29 1614.07 2003.34 1585.62 1986.78 1553.34C1972.42 1525.34 1962.62 1495.87 1957.7 1464.68C1952.81 1433.62 1951.97 1402.52 1953.9 1371.19C1955.25 1349.1 1957.19 1327.07 1960.23 1305.18C1963.48 1281.54 1967.68 1258.05 1971.45 1234.47C1976.78 1201 1982.67 1167.62 1987.23 1134.05C1992.47 1095.4 1994.11 1056.51 1991.1 1017.54C1989.77 1000.48 1987.16 983.585 1983.71 966.827C1975.08 924.942 1959.36 885.603 1941.04 847.217C1927.45 818.77 1913.46 790.5 1899.96 762.009C1888.98 738.808 1879.11 715.121 1871.06 690.747C1861.7 662.433 1854.57 633.565 1850.28 604.012C1844.9 566.842 1843.26 529.474 1843.09 491.995C1842.97 466.625 1843.15 441.277 1842.75 415.908C1842.33 388.169 1840.47 360.519 1835.49 333.157C1830.16 303.957 1821.2 275.931 1806.61 249.985C1795.13 229.574 1780.72 211.399 1763.81 195.106C1740.22 172.393 1713.13 154.749 1684.32 139.629C1658.2 125.926 1630.91 114.901 1603.18 104.851C1556.58 87.9595 1508.86 74.9204 1460.84 63.0103C1418.26 52.4728 1375.41 42.9314 1332.7 32.9473C1293.1 23.7159 1253.51 14.4844 1213.92 5.23088C1210.58 4.45606 1207.3 3.43773 1203.98 2.55222V2.48581Z" fill="white"/>
</g>
<defs>
<clipPath id="clip0_34_984">
<rect width="1440" height="762" fill="white"/>
</clipPath>
</defs>
</svg>
