<svg width="48" height="48" viewBox="0 0 48 48" fill="none" xmlns="http://www.w3.org/2000/svg">
<circle cx="24" cy="24" r="24" fill="currentColor" fillOpacity="0.1"/>
<path d="M30.2222 23.1111H24.8889V17.7778C24.8889 17.5421 24.7953 17.316 24.6286 17.1493C24.4619 16.9826 24.2358 16.8889 24 16.8889C23.7643 16.8889 23.5382 16.9826 23.3715 17.1493C23.2048 17.316 23.1111 17.5421 23.1111 17.7778V23.1111H17.7778C17.5421 23.1111 17.316 23.2048 17.1493 23.3715C16.9826 23.5382 16.8889 23.7643 16.8889 24C16.8889 24.2358 16.9826 24.4619 17.1493 24.6286C17.316 24.7953 17.5421 24.8889 17.7778 24.8889H23.1111V30.2222C23.1111 30.458 23.2048 30.6841 23.3715 30.8508C23.5382 31.0175 23.7643 31.1111 24 31.1111C24.2358 31.1111 24.4619 31.0175 24.6286 30.8508C24.7953 30.6841 24.8889 30.458 24.8889 30.2222V24.8889H30.2222C30.458 24.8889 30.6841 24.7953 30.8508 24.6286C31.0175 24.4619 31.1111 24.2358 31.1111 24C31.1111 23.7643 31.0175 23.5382 30.8508 23.3715C30.6841 23.2048 30.458 23.1111 30.2222 23.1111Z" fill="#6F55DA"/>
</svg>
