<svg  fill="currentColor" stroke="currentColor" width="20" height="20" viewBox="0 0 20 20"  xmlns="http://www.w3.org/2000/svg">
<path d="M16.6667 9.375C17.0119 9.375 17.2917 9.65482 17.2917 10C17.2917 10.3452 17.0119 10.625 16.6667 10.625H8.95837L8.95837 15C8.95837 15.2528 8.8061 15.4807 8.57255 15.5774C8.339 15.6742 8.07018 15.6207 7.89143 15.4419L2.89143 10.4419C2.77422 10.3247 2.70837 10.1658 2.70837 10C2.70837 9.83424 2.77422 9.67527 2.89143 9.55806L7.89143 4.55806C8.07018 4.37931 8.339 4.32584 8.57255 4.42258C8.8061 4.51932 8.95837 4.74721 8.95837 5L8.95837 9.375H16.6667Z"/>
</svg>
