<svg width="18" height="18" viewBox="0 0 18 18" fill="none" xmlns="http://www.w3.org/2000/svg">
<path d="M6.9375 10.5C8.18014 10.5 9.1875 11.5074 9.1875 12.75C9.1875 13.9926 8.18014 15 6.9375 15C5.69486 15 4.6875 13.9926 4.6875 12.75C4.6875 11.5074 5.69486 10.5 6.9375 10.5Z" fill="currentColor"/>
<path d="M10.6875 3C9.44486 3 8.4375 4.00736 8.4375 5.25C8.4375 6.49264 9.44486 7.5 10.6875 7.5C11.9301 7.5 12.9375 6.49264 12.9375 5.25C12.9375 4.00736 11.9301 3 10.6875 3Z" fill="currentColor"/>
<path d="M6.5625 4.65639C6.87316 4.65639 7.125 4.90823 7.125 5.21889C7.125 5.52955 6.87316 5.78139 6.5625 5.78139L1.3125 5.78139C1.00184 5.78139 0.75 5.52955 0.75 5.21889C0.75 4.90823 1.00184 4.65639 1.3125 4.65639H6.5625Z" fill="currentColor"/>
<path d="M11.0625 12.1564C10.7518 12.1564 10.5 12.4082 10.5 12.7189C10.5 13.0296 10.7518 13.2814 11.0625 13.2814H16.3125C16.6232 13.2814 16.875 13.0296 16.875 12.7189C16.875 12.4082 16.6232 12.1564 16.3125 12.1564H11.0625Z" fill="currentColor"/>
<path d="M0.75 12.7189C0.75 12.4082 1.00184 12.1564 1.3125 12.1564H2.8125C3.12316 12.1564 3.375 12.4082 3.375 12.7189C3.375 13.0296 3.12316 13.2814 2.8125 13.2814H1.3125C1.00184 13.2814 0.75 13.0296 0.75 12.7189Z" fill="currentColor"/>
<path d="M16.3125 4.65639C16.6232 4.65639 16.875 4.90823 16.875 5.21889C16.875 5.52955 16.6232 5.78139 16.3125 5.78139L14.8125 5.78139C14.5018 5.78139 14.25 5.52955 14.25 5.21889C14.25 4.90823 14.5018 4.65639 14.8125 4.65639H16.3125Z" fill="currentColor"/>
</svg>
