<svg width="32" height="32" viewBox="0 0 32 32" fill="none" xmlns="http://www.w3.org/2000/svg">
<rect width="32" height="32" rx="5" fill="#FAF5FC"/>
<path d="M13.1681 16.0766C13.1681 14.4682 14.4724 13.1639 16.0818 13.1639C17.6912 13.1639 18.9962 14.4682 18.9962 16.0766C18.9962 17.685 17.6912 18.9892 16.0818 18.9892C14.4724 18.9892 13.1681 17.685 13.1681 16.0766ZM11.5926 16.0766C11.5926 18.5545 13.6024 20.5631 16.0818 20.5631C18.5612 20.5631 20.571 18.5545 20.571 16.0766C20.571 13.5987 18.5612 11.5901 16.0818 11.5901C13.6024 11.5901 11.5926 13.5987 11.5926 16.0766ZM19.6996 11.4122C19.6995 11.6196 19.761 11.8223 19.8762 11.9948C19.9914 12.1672 20.1552 12.3017 20.3468 12.3811C20.5385 12.4606 20.7494 12.4814 20.953 12.441C21.1565 12.4007 21.3434 12.3009 21.4902 12.1543C21.637 12.0077 21.737 11.8209 21.7776 11.6176C21.8181 11.4142 21.7974 11.2034 21.7181 11.0118C21.6388 10.8202 21.5044 10.6564 21.3319 10.5411C21.1594 10.4258 20.9566 10.3642 20.7491 10.3642H20.7487C20.4706 10.3643 20.2039 10.4747 20.0072 10.6712C19.8105 10.8677 19.6998 11.1342 19.6996 11.4122ZM12.5498 23.1885C11.6975 23.1497 11.2342 23.0078 10.9263 22.8879C10.5181 22.7291 10.2269 22.54 9.92071 22.2344C9.61452 21.9288 9.42498 21.638 9.26677 21.2301C9.14676 20.9225 9.00478 20.4594 8.96603 19.6076C8.92365 18.6866 8.91518 18.4099 8.91518 16.0766C8.91518 13.7434 8.92435 13.4675 8.96603 12.5457C9.00485 11.6939 9.14787 11.2317 9.26677 10.9232C9.42568 10.5153 9.61493 10.2242 9.92071 9.9182C10.2265 9.61219 10.5174 9.42276 10.9263 9.26465C11.234 9.14471 11.6975 9.00282 12.5498 8.96409C13.4714 8.92173 13.7482 8.91328 16.0818 8.91328C18.4154 8.91328 18.6925 8.92243 19.6148 8.96409C20.4672 9.00289 20.9297 9.14583 21.2383 9.26465C21.6465 9.42276 21.9377 9.61261 22.2439 9.9182C22.5501 10.2238 22.739 10.5153 22.8979 10.9232C23.0179 11.2307 23.1599 11.6939 23.1986 12.5457C23.241 13.4675 23.2495 13.7434 23.2495 16.0766C23.2495 18.4099 23.241 18.6858 23.1986 19.6076C23.1598 20.4594 23.0171 20.9224 22.8979 21.2301C22.739 21.638 22.5497 21.9291 22.2439 22.2344C21.9382 22.5397 21.6465 22.7291 21.2383 22.8879C20.9306 23.0079 20.4672 23.1498 19.6148 23.1885C18.6933 23.2309 18.4165 23.2393 16.0818 23.2393C13.7471 23.2393 13.4711 23.2309 12.5498 23.1885ZM12.4774 7.39222C11.5468 7.43458 10.9108 7.58207 10.3554 7.79805C9.7802 8.0211 9.29328 8.32033 8.80671 8.80584C8.32013 9.29136 8.02149 9.77875 7.79831 10.3536C7.5822 10.909 7.43462 11.5442 7.39224 12.4744C7.34916 13.406 7.33929 13.7038 7.33929 16.0766C7.33929 18.4493 7.34916 18.7472 7.39224 19.6788C7.43462 20.609 7.5822 21.2441 7.79831 21.7996C8.02149 22.3741 8.3202 22.862 8.80671 23.3473C9.29321 23.8326 9.7802 24.1314 10.3554 24.3551C10.9118 24.5711 11.5468 24.7186 12.4774 24.7609C13.4101 24.8033 13.7076 24.8138 16.0818 24.8138C18.456 24.8138 18.754 24.804 19.6862 24.7609C20.6169 24.7186 21.2525 24.5711 21.8082 24.3551C22.3831 24.1314 22.8703 23.8328 23.3569 23.3473C23.8435 22.8618 24.1415 22.3741 24.3653 21.7996C24.5814 21.2441 24.7297 20.6089 24.7714 19.6788C24.8138 18.7465 24.8236 18.4493 24.8236 16.0766C24.8236 13.7038 24.8138 13.406 24.7714 12.4744C24.729 11.5442 24.5814 10.9087 24.3653 10.3536C24.1415 9.7791 23.8427 9.29212 23.3569 8.80584C22.8711 8.31956 22.3831 8.0211 21.8089 7.79805C21.2525 7.58207 20.6169 7.43388 19.6869 7.39222C18.7547 7.34986 18.4567 7.33931 16.0825 7.33931C13.7083 7.33931 13.4101 7.34917 12.4774 7.39222Z" fill="url(#paint0_radial_197_4463)"/>
<path d="M13.1681 16.0766C13.1681 14.4682 14.4724 13.1639 16.0818 13.1639C17.6912 13.1639 18.9962 14.4682 18.9962 16.0766C18.9962 17.685 17.6912 18.9892 16.0818 18.9892C14.4724 18.9892 13.1681 17.685 13.1681 16.0766ZM11.5926 16.0766C11.5926 18.5545 13.6024 20.5631 16.0818 20.5631C18.5612 20.5631 20.571 18.5545 20.571 16.0766C20.571 13.5987 18.5612 11.5901 16.0818 11.5901C13.6024 11.5901 11.5926 13.5987 11.5926 16.0766ZM19.6996 11.4122C19.6995 11.6196 19.761 11.8223 19.8762 11.9948C19.9914 12.1672 20.1552 12.3017 20.3468 12.3811C20.5385 12.4606 20.7494 12.4814 20.953 12.441C21.1565 12.4007 21.3434 12.3009 21.4902 12.1543C21.637 12.0077 21.737 11.8209 21.7776 11.6176C21.8181 11.4142 21.7974 11.2034 21.7181 11.0118C21.6388 10.8202 21.5044 10.6564 21.3319 10.5411C21.1594 10.4258 20.9566 10.3642 20.7491 10.3642H20.7487C20.4706 10.3643 20.2039 10.4747 20.0072 10.6712C19.8105 10.8677 19.6998 11.1342 19.6996 11.4122ZM12.5498 23.1885C11.6975 23.1497 11.2342 23.0078 10.9263 22.8879C10.5181 22.7291 10.2269 22.54 9.92071 22.2344C9.61452 21.9288 9.42498 21.638 9.26677 21.2301C9.14676 20.9225 9.00478 20.4594 8.96603 19.6076C8.92365 18.6866 8.91518 18.4099 8.91518 16.0766C8.91518 13.7434 8.92435 13.4675 8.96603 12.5457C9.00485 11.6939 9.14787 11.2317 9.26677 10.9232C9.42568 10.5153 9.61493 10.2242 9.92071 9.9182C10.2265 9.61219 10.5174 9.42276 10.9263 9.26465C11.234 9.14471 11.6975 9.00282 12.5498 8.96409C13.4714 8.92173 13.7482 8.91328 16.0818 8.91328C18.4154 8.91328 18.6925 8.92243 19.6148 8.96409C20.4672 9.00289 20.9297 9.14583 21.2383 9.26465C21.6465 9.42276 21.9377 9.61261 22.2439 9.9182C22.5501 10.2238 22.739 10.5153 22.8979 10.9232C23.0179 11.2307 23.1599 11.6939 23.1986 12.5457C23.241 13.4675 23.2495 13.7434 23.2495 16.0766C23.2495 18.4099 23.241 18.6858 23.1986 19.6076C23.1598 20.4594 23.0171 20.9224 22.8979 21.2301C22.739 21.638 22.5497 21.9291 22.2439 22.2344C21.9382 22.5397 21.6465 22.7291 21.2383 22.8879C20.9306 23.0079 20.4672 23.1498 19.6148 23.1885C18.6933 23.2309 18.4165 23.2393 16.0818 23.2393C13.7471 23.2393 13.4711 23.2309 12.5498 23.1885ZM12.4774 7.39222C11.5468 7.43458 10.9108 7.58207 10.3554 7.79805C9.7802 8.0211 9.29328 8.32033 8.80671 8.80584C8.32013 9.29136 8.02149 9.77875 7.79831 10.3536C7.5822 10.909 7.43462 11.5442 7.39224 12.4744C7.34916 13.406 7.33929 13.7038 7.33929 16.0766C7.33929 18.4493 7.34916 18.7472 7.39224 19.6788C7.43462 20.609 7.5822 21.2441 7.79831 21.7996C8.02149 22.3741 8.3202 22.862 8.80671 23.3473C9.29321 23.8326 9.7802 24.1314 10.3554 24.3551C10.9118 24.5711 11.5468 24.7186 12.4774 24.7609C13.4101 24.8033 13.7076 24.8138 16.0818 24.8138C18.456 24.8138 18.754 24.804 19.6862 24.7609C20.6169 24.7186 21.2525 24.5711 21.8082 24.3551C22.3831 24.1314 22.8703 23.8328 23.3569 23.3473C23.8435 22.8618 24.1415 22.3741 24.3653 21.7996C24.5814 21.2441 24.7297 20.6089 24.7714 19.6788C24.8138 18.7465 24.8236 18.4493 24.8236 16.0766C24.8236 13.7038 24.8138 13.406 24.7714 12.4744C24.729 11.5442 24.5814 10.9087 24.3653 10.3536C24.1415 9.7791 23.8427 9.29212 23.3569 8.80584C22.8711 8.31956 22.3831 8.0211 21.8089 7.79805C21.2525 7.58207 20.6169 7.43388 19.6869 7.39222C18.7547 7.34986 18.4567 7.33931 16.0825 7.33931C13.7083 7.33931 13.4101 7.34917 12.4774 7.39222Z" fill="url(#paint1_radial_197_4463)"/>
<defs>
<radialGradient id="paint0_radial_197_4463" cx="0" cy="0" r="1" gradientUnits="userSpaceOnUse" gradientTransform="translate(9.66228 24.8964) scale(22.8252 22.8115)">
<stop offset="0.09" stop-color="#FA8F21"/>
<stop offset="0.78" stop-color="#D82D7E"/>
</radialGradient>
<radialGradient id="paint1_radial_197_4463" cx="0" cy="0" r="1" gradientUnits="userSpaceOnUse" gradientTransform="translate(17.9432 25.6793) scale(17.9894 17.9786)">
<stop offset="0.64" stop-color="#8C3AAA" stop-opacity="0"/>
<stop offset="1" stop-color="#8C3AAA"/>
</radialGradient>
</defs>
</svg>
