<svg width="20" height="20" viewBox="0 0 20 20" fill="none" xmlns="http://www.w3.org/2000/svg">
<path fill="currentColor" fillRule="evenodd" clipRule="evenodd" d="M11.6288 18.4718L11.0867 19.3877C10.6035 20.204 9.39647 20.204 8.91331 19.3877L8.37121 18.4718C7.95073 17.7614 7.74049 17.4063 7.40279 17.2098C7.06509 17.0134 6.63992 17.0061 5.78958 16.9915C4.53422 16.9698 3.74689 16.8929 3.08658 16.6194C1.86144 16.1119 0.888072 15.1386 0.380602 13.9134C0 12.9946 0 11.8297 0 9.5V8.5C0 5.22657 0 3.58985 0.736799 2.38751C1.14908 1.71473 1.71473 1.14908 2.38751 0.736799C3.58985 0 5.22657 0 8.5 0H11.5C14.7734 0 16.4101 0 17.6125 0.736799C18.2853 1.14908 18.8509 1.71473 19.2632 2.38751C20 3.58985 20 5.22657 20 8.5V9.5C20 11.8297 20 12.9946 19.6194 13.9134C19.1119 15.1386 18.1386 16.1119 16.9134 16.6194C16.2531 16.8929 15.4658 16.9698 14.2104 16.9915C13.36 17.0061 12.9349 17.0134 12.5972 17.2098C12.2595 17.4062 12.0492 17.7614 11.6288 18.4718ZM6 9.75C5.58579 9.75 5.25 10.0858 5.25 10.5C5.25 10.9142 5.58579 11.25 6 11.25H11.5C11.9142 11.25 12.25 10.9142 12.25 10.5C12.25 10.0858 11.9142 9.75 11.5 9.75H6ZM5.25 7C5.25 6.58579 5.58579 6.25 6 6.25H14C14.4142 6.25 14.75 6.58579 14.75 7C14.75 7.41421 14.4142 7.75 14 7.75H6C5.58579 7.75 5.25 7.41421 5.25 7Z" />
</svg>
