<svg width="32" height="32" viewBox="0 0 32 32" fill="none" xmlns="http://www.w3.org/2000/svg">
<rect width="32" height="32" rx="5" fill="#F7F7F7"/>
<path fill-rule="evenodd" clip-rule="evenodd" d="M19.4561 13.786C20.5278 14.5479 21.8113 14.955 23.1263 14.9501V12.344C22.8678 12.3447 22.61 12.317 22.3575 12.2615V14.3376C21.0396 14.34 19.7542 13.9282 18.683 13.1606V18.5204C18.6797 19.3999 18.4385 20.2621 17.985 21.0156C17.5314 21.7691 16.8824 22.3859 16.1067 22.8004C15.331 23.215 14.4576 23.4119 13.5791 23.3703C12.7006 23.3287 11.8497 23.0501 11.1167 22.5641C11.7947 23.2501 12.6611 23.7195 13.6061 23.9128C14.551 24.1062 15.5321 24.0147 16.4251 23.6501C17.318 23.2855 18.0827 22.6641 18.6223 21.8645C19.1619 21.065 19.452 20.1234 19.4561 19.1589V13.786ZM20.4073 11.1278C19.8623 10.5371 19.5279 9.78274 19.4561 8.98219V8.6434H18.7264C18.8166 9.15227 19.0129 9.63646 19.3025 10.0645C19.5921 10.4925 19.9685 10.8548 20.4073 11.1278ZM12.8063 20.501C12.5534 20.1703 12.3984 19.7752 12.359 19.3607C12.3195 18.9462 12.3972 18.529 12.5833 18.1565C12.7693 17.784 13.0561 17.4713 13.4111 17.2538C13.7662 17.0363 14.1751 16.9228 14.5914 16.9263C14.8213 16.9263 15.0498 16.9614 15.269 17.0306V14.3376C15.0128 14.3037 14.7543 14.2892 14.4959 14.2942V16.3877C13.9621 16.219 13.3844 16.2574 12.8777 16.4952C12.3709 16.733 11.9722 17.1529 11.7609 17.6713C11.5497 18.1897 11.5412 18.7686 11.7373 19.2929C11.9334 19.8172 12.3197 20.2485 12.8193 20.501H12.8063Z" fill="#EE1D52"/>
<path fill-rule="evenodd" clip-rule="evenodd" d="M18.6826 13.1432C19.7539 13.9109 21.0392 14.3226 22.3571 14.3203V12.2441C21.6062 12.0853 20.9241 11.6949 20.4069 11.1278C19.9681 10.8548 19.5917 10.4925 19.3021 10.0645C19.0125 9.63646 18.8162 9.15227 18.726 8.6434H16.8062V19.1589C16.8044 19.6243 16.6569 20.0775 16.3844 20.4548C16.1119 20.8322 15.7281 21.1147 15.2868 21.2628C14.8455 21.4108 14.369 21.417 13.924 21.2803C13.4791 21.1437 13.0881 20.8712 12.8059 20.501C12.3588 20.2754 12.0007 19.9057 11.7894 19.4516C11.5782 18.9975 11.526 18.4855 11.6415 17.9981C11.7569 17.5108 12.0332 17.0765 12.4257 16.7654C12.8182 16.4543 13.3041 16.2846 13.8049 16.2835C14.0347 16.2842 14.2631 16.3194 14.4825 16.3877V14.2942C13.5346 14.317 12.6139 14.616 11.8336 15.1546C11.0532 15.6932 10.4471 16.4479 10.0896 17.3262C9.73215 18.2044 9.63889 19.1679 9.82127 20.0984C10.0037 21.0288 10.4538 21.8858 11.1163 22.5641C11.8495 23.0536 12.7017 23.3351 13.5822 23.3785C14.4627 23.4219 15.3385 23.2257 16.1163 22.8107C16.8941 22.3958 17.5447 21.7776 17.9989 21.0221C18.4532 20.2665 18.6939 19.4019 18.6956 18.5204L18.6826 13.1432Z" fill="black"/>
<path fill-rule="evenodd" clip-rule="evenodd" d="M22.3574 12.2439V11.6836C21.6679 11.6866 20.9916 11.4938 20.4072 11.1277C20.9231 11.6964 21.6058 12.0871 22.3574 12.2439ZM18.7263 8.64323C18.7263 8.54333 18.6959 8.43908 18.6829 8.33918V8.0004H16.0334V18.5202C16.0311 19.1092 15.7952 19.6733 15.3774 20.0886C14.9597 20.5039 14.3943 20.7365 13.8052 20.7353C13.4584 20.7371 13.116 20.6567 12.8062 20.5008C13.0884 20.871 13.4794 21.1435 13.9243 21.2802C14.3693 21.4168 14.8458 21.4106 15.2871 21.2626C15.7284 21.1145 16.1122 20.832 16.3847 20.4547C16.6572 20.0773 16.8047 19.6241 16.8065 19.1587V8.64323H18.7263ZM14.4828 14.2897V13.6946C13.3925 13.5465 12.2843 13.7721 11.3386 14.3345C10.3929 14.8969 9.66561 15.763 9.2752 16.7916C8.88479 17.8203 8.8543 18.9509 9.18869 19.9991C9.52308 21.0473 10.2026 21.9514 11.1166 22.5639C10.4591 21.8841 10.0138 21.0274 9.8351 20.0987C9.65643 19.1699 9.75215 18.2091 10.1106 17.3339C10.469 16.4586 11.0745 15.7066 11.8533 15.1699C12.6321 14.6331 13.5503 14.3348 14.4958 14.3114L14.4828 14.2897Z" fill="#69C9D0"/>
</svg>
