<svg width="32" height="32" viewBox="0 0 32 32" fill="none" xmlns="http://www.w3.org/2000/svg">
<rect width="32" height="32" rx="5" fill="#FAF5FC"/>
<path d="M13.1682 16.0766C13.1682 14.4682 14.4725 13.164 16.0819 13.164C17.6913 13.164 18.9963 14.4682 18.9963 16.0766C18.9963 17.685 17.6913 18.9893 16.0819 18.9893C14.4725 18.9893 13.1682 17.685 13.1682 16.0766ZM11.5927 16.0766C11.5927 18.5545 13.6025 20.5631 16.0819 20.5631C18.5612 20.5631 20.571 18.5545 20.571 16.0766C20.571 13.5987 18.5612 11.5901 16.0819 11.5901C13.6025 11.5901 11.5927 13.5987 11.5927 16.0766ZM19.6997 11.4123C19.6996 11.6196 19.761 11.8224 19.8762 11.9948C19.9914 12.1673 20.1552 12.3017 20.3469 12.3812C20.5386 12.4606 20.7495 12.4815 20.953 12.4411C21.1565 12.4007 21.3435 12.3009 21.4903 12.1543C21.6371 12.0078 21.7371 11.821 21.7776 11.6176C21.8182 11.4143 21.7975 11.2034 21.7182 11.0118C21.6388 10.8202 21.5044 10.6564 21.332 10.5411C21.1595 10.4259 20.9567 10.3643 20.7492 10.3642H20.7488C20.4706 10.3643 20.2039 10.4748 20.0072 10.6713C19.8105 10.8678 19.6999 11.1343 19.6997 11.4123ZM12.5499 23.1885C11.6975 23.1498 11.2342 23.0079 10.9264 22.888C10.5182 22.7292 10.227 22.54 9.92077 22.2344C9.61458 21.9288 9.42504 21.6381 9.26683 21.2301C9.14682 20.9226 9.00484 20.4594 8.96609 19.6076C8.92371 18.6866 8.91525 18.41 8.91525 16.0767C8.91525 13.7434 8.92441 13.4675 8.96609 12.5458C9.00491 11.6939 9.14794 11.2317 9.26683 10.9232C9.42574 10.5153 9.615 10.2243 9.92077 9.91825C10.2266 9.61223 10.5175 9.42281 10.9264 9.2647C11.2341 9.14475 11.6975 9.00286 12.5499 8.96414C13.4714 8.92178 13.7482 8.91332 16.0819 8.91332C18.4155 8.91332 18.6926 8.92248 19.6149 8.96414C20.4672 9.00293 20.9298 9.14587 21.2384 9.2647C21.6466 9.42281 21.9378 9.61265 22.244 9.91825C22.5502 10.2238 22.739 10.5153 22.8979 10.9232C23.018 11.2308 23.1599 11.6939 23.1987 12.5458C23.2411 13.4675 23.2495 13.7434 23.2495 16.0767C23.2495 18.41 23.2411 18.6859 23.1987 19.6076C23.1599 20.4594 23.0172 20.9225 22.8979 21.2301C22.739 21.6381 22.5498 21.9291 22.244 22.2344C21.9382 22.5398 21.6466 22.7292 21.2384 22.888C20.9307 23.0079 20.4672 23.1498 19.6149 23.1885C18.6934 23.2309 18.4165 23.2394 16.0819 23.2394C13.7472 23.2394 13.4711 23.2309 12.5499 23.1885ZM12.4775 7.39227C11.5468 7.43463 10.9108 7.58211 10.3555 7.7981C9.78026 8.02114 9.29334 8.32038 8.80677 8.80589C8.3202 9.2914 8.02155 9.7788 7.79837 10.3536C7.58226 10.9091 7.43468 11.5443 7.3923 12.4744C7.34922 13.406 7.33936 13.7039 7.33936 16.0766C7.33936 18.4494 7.34922 18.7472 7.3923 19.6788C7.43468 20.609 7.58226 21.2442 7.79837 21.7996C8.02155 22.3741 8.32027 22.8621 8.80677 23.3474C9.29327 23.8327 9.78026 24.1315 10.3555 24.3552C10.9119 24.5711 11.5468 24.7186 12.4775 24.761C13.4102 24.8033 13.7077 24.8139 16.0819 24.8139C18.4561 24.8139 18.7541 24.804 19.6862 24.761C20.617 24.7186 21.2525 24.5711 21.8083 24.3552C22.3831 24.1315 22.8704 23.8329 23.357 23.3474C23.8435 22.8618 24.1416 22.3741 24.3654 21.7996C24.5815 21.2442 24.7297 20.609 24.7714 19.6788C24.8138 18.7465 24.8237 18.4494 24.8237 16.0766C24.8237 13.7039 24.8138 13.406 24.7714 12.4744C24.729 11.5442 24.5815 10.9087 24.3654 10.3536C24.1416 9.77915 23.8428 9.29217 23.357 8.80589C22.8712 8.31961 22.3831 8.02114 21.809 7.7981C21.2525 7.58211 20.6169 7.43393 19.6869 7.39227C18.7548 7.34991 18.4568 7.33936 16.0826 7.33936C13.7084 7.33936 13.4102 7.34921 12.4775 7.39227Z" fill="url(#paint0_radial_82_307)"/>
<path d="M13.1682 16.0766C13.1682 14.4682 14.4725 13.164 16.0819 13.164C17.6913 13.164 18.9963 14.4682 18.9963 16.0766C18.9963 17.685 17.6913 18.9893 16.0819 18.9893C14.4725 18.9893 13.1682 17.685 13.1682 16.0766ZM11.5927 16.0766C11.5927 18.5545 13.6025 20.5631 16.0819 20.5631C18.5612 20.5631 20.571 18.5545 20.571 16.0766C20.571 13.5987 18.5612 11.5901 16.0819 11.5901C13.6025 11.5901 11.5927 13.5987 11.5927 16.0766ZM19.6997 11.4123C19.6996 11.6196 19.761 11.8224 19.8762 11.9948C19.9914 12.1673 20.1552 12.3017 20.3469 12.3812C20.5386 12.4606 20.7495 12.4815 20.953 12.4411C21.1565 12.4007 21.3435 12.3009 21.4903 12.1543C21.6371 12.0078 21.7371 11.821 21.7776 11.6176C21.8182 11.4143 21.7975 11.2034 21.7182 11.0118C21.6388 10.8202 21.5044 10.6564 21.332 10.5411C21.1595 10.4259 20.9567 10.3643 20.7492 10.3642H20.7488C20.4706 10.3643 20.2039 10.4748 20.0072 10.6713C19.8105 10.8678 19.6999 11.1343 19.6997 11.4123ZM12.5499 23.1885C11.6975 23.1498 11.2342 23.0079 10.9264 22.888C10.5182 22.7292 10.227 22.54 9.92077 22.2344C9.61458 21.9288 9.42504 21.6381 9.26683 21.2301C9.14682 20.9226 9.00484 20.4594 8.96609 19.6076C8.92371 18.6866 8.91525 18.41 8.91525 16.0767C8.91525 13.7434 8.92441 13.4675 8.96609 12.5458C9.00491 11.6939 9.14794 11.2317 9.26683 10.9232C9.42574 10.5153 9.615 10.2243 9.92077 9.91825C10.2266 9.61223 10.5175 9.42281 10.9264 9.2647C11.2341 9.14475 11.6975 9.00286 12.5499 8.96414C13.4714 8.92178 13.7482 8.91332 16.0819 8.91332C18.4155 8.91332 18.6926 8.92248 19.6149 8.96414C20.4672 9.00293 20.9298 9.14587 21.2384 9.2647C21.6466 9.42281 21.9378 9.61265 22.244 9.91825C22.5502 10.2238 22.739 10.5153 22.8979 10.9232C23.018 11.2308 23.1599 11.6939 23.1987 12.5458C23.2411 13.4675 23.2495 13.7434 23.2495 16.0767C23.2495 18.41 23.2411 18.6859 23.1987 19.6076C23.1599 20.4594 23.0172 20.9225 22.8979 21.2301C22.739 21.6381 22.5498 21.9291 22.244 22.2344C21.9382 22.5398 21.6466 22.7292 21.2384 22.888C20.9307 23.0079 20.4672 23.1498 19.6149 23.1885C18.6934 23.2309 18.4165 23.2394 16.0819 23.2394C13.7472 23.2394 13.4711 23.2309 12.5499 23.1885ZM12.4775 7.39227C11.5468 7.43463 10.9108 7.58211 10.3555 7.7981C9.78026 8.02114 9.29334 8.32038 8.80677 8.80589C8.3202 9.2914 8.02155 9.7788 7.79837 10.3536C7.58226 10.9091 7.43468 11.5443 7.3923 12.4744C7.34922 13.406 7.33936 13.7039 7.33936 16.0766C7.33936 18.4494 7.34922 18.7472 7.3923 19.6788C7.43468 20.609 7.58226 21.2442 7.79837 21.7996C8.02155 22.3741 8.32027 22.8621 8.80677 23.3474C9.29327 23.8327 9.78026 24.1315 10.3555 24.3552C10.9119 24.5711 11.5468 24.7186 12.4775 24.761C13.4102 24.8033 13.7077 24.8139 16.0819 24.8139C18.4561 24.8139 18.7541 24.804 19.6862 24.761C20.617 24.7186 21.2525 24.5711 21.8083 24.3552C22.3831 24.1315 22.8704 23.8329 23.357 23.3474C23.8435 22.8618 24.1416 22.3741 24.3654 21.7996C24.5815 21.2442 24.7297 20.609 24.7714 19.6788C24.8138 18.7465 24.8237 18.4494 24.8237 16.0766C24.8237 13.7039 24.8138 13.406 24.7714 12.4744C24.729 11.5442 24.5815 10.9087 24.3654 10.3536C24.1416 9.77915 23.8428 9.29217 23.357 8.80589C22.8712 8.31961 22.3831 8.02114 21.809 7.7981C21.2525 7.58211 20.6169 7.43393 19.6869 7.39227C18.7548 7.34991 18.4568 7.33936 16.0826 7.33936C13.7084 7.33936 13.4102 7.34921 12.4775 7.39227Z" fill="url(#paint1_radial_82_307)"/>
<defs>
<radialGradient id="paint0_radial_82_307" cx="0" cy="0" r="1" gradientUnits="userSpaceOnUse" gradientTransform="translate(9.66234 24.8964) scale(22.8252 22.8115)">
<stop offset="0.09" stop-color="#FA8F21"/>
<stop offset="0.78" stop-color="#D82D7E"/>
</radialGradient>
<radialGradient id="paint1_radial_82_307" cx="0" cy="0" r="1" gradientUnits="userSpaceOnUse" gradientTransform="translate(17.9433 25.6793) scale(17.9894 17.9786)">
<stop offset="0.64" stop-color="#8C3AAA" stop-opacity="0"/>
<stop offset="1" stop-color="#8C3AAA"/>
</radialGradient>
</defs>
</svg>
