<svg width="32" height="32" viewBox="0 0 32 32" fill="none" xmlns="http://www.w3.org/2000/svg">
<rect width="32" height="32" rx="5" fill="#FEFBB3"/>
<path d="M14.1818 9.39137L16.5454 8.86963H17.4545L20 10.087L21.2727 12.6957V14.6088L22.9091 14.4348V14.9566V15.8262L21.8181 16.174L21.4545 16.6957L22.3636 18.4348L24.7272 19.6522L24.1818 20.3479L22.5454 20.8696L22.1818 21.5653L21.8181 22.087H19.8181L18.9091 22.4348L16.9091 23.4783L15.6363 23.1305L14.1818 22.4348L13.0909 22.087H11.6363L11.0909 21.7392L10.5454 20.8696L9.63633 20.6957L8.90906 20.174V19.6522L9.81815 19.1305L11.4545 17.9131L11.8181 16.6957L10.3636 15.8262L10.5454 14.9566L11.0909 14.4348L12.1818 14.6088L12.7272 11.4783L14.1818 9.39137Z" fill="white"/>
<path d="M16.6851 9.19818C18.9207 9.19889 20.783 10.9792 20.7857 13.1228C20.7863 13.6249 20.8025 14.0873 20.8321 14.5132C20.8504 14.776 21.0789 14.9707 21.3409 14.9707C21.3795 14.9707 21.4188 14.9665 21.4583 14.9576L22.1587 14.8006C22.1885 14.7939 22.2184 14.7907 22.2479 14.7907C22.4258 14.7907 22.5896 14.9069 22.6295 15.0791C22.686 15.3224 22.5435 15.5683 22.297 15.6509L21.2339 16.0614C20.9655 16.1651 20.8213 16.4445 20.8969 16.7117C21.7498 19.7278 24.1321 19.4142 24.1321 19.8071C24.1321 20.3005 22.3365 20.3702 22.1742 20.5254C22.012 20.6806 22.1672 21.4338 21.8047 21.5796C21.7364 21.6071 21.6393 21.6167 21.5209 21.6167C21.2479 21.6167 20.8618 21.5657 20.4548 21.5657C20.1018 21.5657 19.7332 21.6041 19.409 21.7473C18.5491 22.1272 17.7201 22.8369 16.6925 22.8369C15.6648 22.8369 14.8358 22.1272 13.9759 21.7473C13.6517 21.604 13.2831 21.5657 12.9301 21.5657C12.5231 21.5657 12.137 21.6167 11.864 21.6167C11.7456 21.6167 11.6485 21.6071 11.5802 21.5796C11.2177 21.4338 11.3729 20.6806 11.2107 20.5254C11.0485 20.3702 9.25283 20.3005 9.25283 19.8071C9.25283 19.4141 11.6351 19.7278 12.488 16.7117C12.5636 16.4445 12.4194 16.1651 12.151 16.0614L11.0879 15.6509C10.8414 15.5682 10.6989 15.3224 10.7553 15.0791C10.7953 14.9069 10.9591 14.7906 11.1369 14.7906C11.1665 14.7906 11.1964 14.7938 11.2262 14.8005L11.9266 14.9576C11.9661 14.9664 12.0054 14.9707 12.0439 14.9707C12.3059 14.9707 12.5345 14.7759 12.5527 14.5131C12.5824 14.0872 12.5986 13.6249 12.5992 13.1228C12.6019 10.9792 14.4494 9.19893 16.6851 9.19818ZM16.6853 8.34766H16.6847C16.0174 8.34786 15.3673 8.47612 14.7527 8.7289C14.1626 8.9715 13.6316 9.31742 13.1743 9.75708C12.7177 10.1962 12.3583 10.7059 12.1062 11.2721C11.8441 11.8609 11.7108 12.4832 11.71 13.1218C11.7096 13.4353 11.7028 13.7395 11.6897 14.0309L11.4291 13.9724C11.3335 13.951 11.2352 13.9401 11.137 13.9401C10.8534 13.9401 10.5737 14.0317 10.3493 14.1982C10.1153 14.372 9.95113 14.6193 9.88721 14.8948C9.73509 15.5505 10.1136 16.2124 10.7695 16.4452L11.5498 16.7464C11.0331 18.2633 10.0804 18.554 9.43892 18.7498C9.26869 18.8017 9.12166 18.8466 8.98167 18.913C8.42386 19.1779 8.36365 19.6265 8.36365 19.8071C8.36365 20.153 8.5348 20.4686 8.84562 20.6958C9.00037 20.809 9.19208 20.9023 9.43166 20.9812C9.75821 21.0888 10.1368 21.157 10.4444 21.2117C10.4593 21.3208 10.4811 21.4379 10.5178 21.556C10.6704 22.0462 10.9923 22.2658 11.2355 22.3636C11.4663 22.4564 11.7047 22.4671 11.864 22.4671C12.0198 22.4671 12.1844 22.4555 12.3588 22.4431C12.5458 22.4299 12.7393 22.4162 12.9301 22.4162C13.2258 22.4162 13.4459 22.4499 13.603 22.5193C13.8187 22.6147 14.0475 22.7432 14.2897 22.8792C14.964 23.258 15.7282 23.6874 16.6925 23.6874C17.6567 23.6874 18.4209 23.258 19.0952 22.8792C19.3374 22.7432 19.5662 22.6147 19.7819 22.5193C19.939 22.4499 20.1591 22.4162 20.4548 22.4162C20.6457 22.4162 20.8391 22.4299 21.0261 22.4431C21.2004 22.4555 21.3651 22.4671 21.5209 22.4671C21.6802 22.4671 21.9186 22.4564 22.1494 22.3636C22.3926 22.2658 22.7145 22.0462 22.8671 21.556C22.9038 21.4379 22.9256 21.3208 22.9405 21.2117C23.2481 21.157 23.6267 21.0888 23.9532 20.9812C24.1928 20.9023 24.3845 20.809 24.5393 20.6958C24.85 20.4686 25.0212 20.153 25.0212 19.8071C25.0212 19.6265 24.961 19.1779 24.4031 18.9131C24.2632 18.8466 24.1161 18.8018 23.9459 18.7498C23.3044 18.554 22.3517 18.2633 21.835 16.7465L22.6152 16.4452C23.2712 16.2125 23.6497 15.5505 23.4976 14.8948C23.4337 14.6193 23.2695 14.372 23.0355 14.1982C22.8111 14.0318 22.5314 13.9401 22.2479 13.9401C22.1497 13.9401 22.0514 13.951 21.9558 13.9724L21.6952 14.0309C21.6821 13.7395 21.6753 13.4353 21.6749 13.1218C21.6741 12.4827 21.5397 11.8598 21.2755 11.2702C21.0218 10.7042 20.6605 10.1946 20.2015 9.75551C19.7426 9.31644 19.2101 8.97089 18.6189 8.72849C18.003 8.47602 17.3525 8.34789 16.6853 8.34766Z" fill="#050505"/>
</svg>
