<svg width="32" height="32" viewBox="0 0 32 32" fill="none" xmlns="http://www.w3.org/2000/svg">
<rect width="32" height="32" rx="5" fill="#F7F7F7"/>
<path fill-rule="evenodd" clip-rule="evenodd" d="M19.4561 13.7862C20.5278 14.5481 21.8113 14.9552 23.1263 14.9502V12.3442C22.8678 12.3449 22.61 12.3172 22.3575 12.2616V14.3378C21.0396 14.3401 19.7542 13.9284 18.683 13.1607V18.5205C18.6797 19.4 18.4385 20.2622 17.985 21.0158C17.5314 21.7693 16.8824 22.386 16.1067 22.8006C15.331 23.2151 14.4576 23.4121 13.5791 23.3704C12.7006 23.3288 11.8497 23.0503 11.1167 22.5643C11.7947 23.2503 12.6611 23.7197 13.6061 23.913C14.551 24.1063 15.5321 24.0149 16.4251 23.6502C17.318 23.2856 18.0827 22.6642 18.6223 21.8647C19.1619 21.0652 19.452 20.1235 19.4561 19.159V13.7862ZM20.4073 11.128C19.8623 10.5373 19.5279 9.78289 19.4561 8.98234V8.64355H18.7264C18.8166 9.15242 19.0129 9.63661 19.3025 10.0646C19.5921 10.4927 19.9685 10.855 20.4073 11.128ZM12.8063 20.5011C12.5534 20.1704 12.3984 19.7753 12.359 19.3609C12.3195 18.9464 12.3972 18.5292 12.5833 18.1567C12.7693 17.7842 13.0561 17.4714 13.4111 17.2539C13.7662 17.0364 14.1751 16.923 14.5914 16.9265C14.8213 16.9264 15.0498 16.9616 15.269 17.0307V14.3378C15.0128 14.3039 14.7543 14.2893 14.4959 14.2944V16.3879C13.9621 16.2192 13.3844 16.2575 12.8777 16.4954C12.3709 16.7332 11.9722 17.153 11.7609 17.6714C11.5497 18.1898 11.5412 18.7687 11.7373 19.293C11.9334 19.8174 12.3197 20.2486 12.8193 20.5011H12.8063Z" fill="#EE1D52"/>
<path fill-rule="evenodd" clip-rule="evenodd" d="M18.6826 13.1434C19.7539 13.911 21.0392 14.3228 22.3571 14.3204V12.2443C21.6062 12.0855 20.9241 11.6951 20.4069 11.128C19.9681 10.855 19.5917 10.4927 19.3021 10.0646C19.0125 9.63661 18.8162 9.15242 18.726 8.64355H16.8062V19.159C16.8044 19.6245 16.6569 20.0777 16.3844 20.455C16.1119 20.8323 15.7281 21.1149 15.2868 21.2629C14.8455 21.411 14.369 21.4171 13.924 21.2805C13.4791 21.1439 13.0881 20.8713 12.8059 20.5011C12.3588 20.2755 12.0007 19.9058 11.7894 19.4517C11.5782 18.9976 11.526 18.4856 11.6415 17.9983C11.7569 17.5109 12.0332 17.0767 12.4257 16.7656C12.8182 16.4545 13.3041 16.2847 13.8049 16.2837C14.0347 16.2844 14.2631 16.3195 14.4825 16.3879V14.2944C13.5346 14.3171 12.6139 14.6162 11.8336 15.1548C11.0532 15.6934 10.4471 16.4481 10.0896 17.3263C9.73215 18.2045 9.63889 19.168 9.82127 20.0985C10.0037 21.029 10.4538 21.886 11.1163 22.5643C11.8495 23.0538 12.7017 23.3352 13.5822 23.3786C14.4627 23.4221 15.3385 23.2258 16.1163 22.8109C16.8941 22.3959 17.5447 21.7777 17.9989 21.0222C18.4532 20.2667 18.6939 19.4021 18.6956 18.5205L18.6826 13.1434Z" fill="black"/>
<path fill-rule="evenodd" clip-rule="evenodd" d="M22.3574 12.244V11.6837C21.6679 11.6867 20.9916 11.4939 20.4072 11.1278C20.9231 11.6965 21.6058 12.0872 22.3574 12.244ZM18.7263 8.64332C18.7263 8.54342 18.6959 8.43918 18.6829 8.33928V8.00049H16.0334V18.5203C16.0311 19.1093 15.7952 19.6734 15.3774 20.0887C14.9597 20.504 14.3943 20.7366 13.8052 20.7354C13.4584 20.7372 13.116 20.6568 12.8062 20.5009C13.0884 20.8711 13.4794 21.1436 13.9243 21.2802C14.3693 21.4169 14.8458 21.4107 15.2871 21.2627C15.7284 21.1146 16.1122 20.8321 16.3847 20.4548C16.6572 20.0774 16.8047 19.6242 16.8065 19.1588V8.64332H18.7263ZM14.4828 14.2898V13.6947C13.3925 13.5466 12.2843 13.7721 11.3386 14.3345C10.3929 14.8969 9.66561 15.7631 9.2752 16.7917C8.88479 17.8204 8.8543 18.951 9.18869 19.9992C9.52308 21.0474 10.2026 21.9515 11.1166 22.564C10.4591 21.8842 10.0138 21.0275 9.8351 20.0987C9.65643 19.17 9.75215 18.2092 10.1106 17.334C10.469 16.4587 11.0745 15.7067 11.8533 15.17C12.6321 14.6332 13.5503 14.3349 14.4958 14.3115L14.4828 14.2898Z" fill="#69C9D0"/>
</svg>
