<svg width="32" height="32" viewBox="0 0 32 32" fill="none" xmlns="http://www.w3.org/2000/svg">
<rect width="32" height="32" rx="5" fill="#EEFBFF"/>
<path d="M23.9421 10.8973C23.4137 11.1247 22.8582 11.283 22.2894 11.3684C22.5553 11.3228 22.9467 10.8441 23.1024 10.6503C23.3391 10.358 23.5195 10.0244 23.6343 9.66629C23.6343 9.63969 23.6609 9.6017 23.6343 9.5827C23.6209 9.57539 23.6059 9.57155 23.5907 9.57155C23.5754 9.57155 23.5604 9.57539 23.547 9.5827C22.9293 9.9172 22.2719 10.1725 21.5903 10.3426C21.5666 10.3498 21.5413 10.3505 21.5172 10.3444C21.4931 10.3384 21.4711 10.326 21.4536 10.3084C21.4005 10.2452 21.3434 10.1855 21.2826 10.1298C21.0046 9.88074 20.6892 9.67689 20.348 9.52571C19.8873 9.33673 19.3897 9.25488 18.8928 9.28636C18.4107 9.31681 17.9399 9.44613 17.5099 9.66629C17.0864 9.8984 16.7142 10.2137 16.4157 10.5933C16.1017 10.984 15.875 11.4374 15.7508 11.9231C15.6484 12.385 15.6368 12.8624 15.7166 13.3288C15.7166 13.4086 15.7166 13.42 15.6482 13.4086C12.9393 13.0097 10.7167 12.0484 8.90068 9.98543C8.8209 9.89425 8.77911 9.89425 8.71452 9.98543C7.92426 11.186 8.30799 13.0857 9.29581 14.0241C9.42879 14.1495 9.56556 14.271 9.70993 14.385C9.25703 14.3529 8.81518 14.2301 8.41057 14.0241C8.33459 13.9747 8.2928 14.0013 8.289 14.0925C8.27823 14.2189 8.27823 14.346 8.289 14.4724C8.36827 15.0782 8.60703 15.6521 8.98085 16.1354C9.35467 16.6187 9.85014 16.9941 10.4166 17.2231C10.5547 17.2822 10.6986 17.3268 10.8459 17.3561C10.4266 17.4386 9.99662 17.4514 9.57316 17.3941C9.48198 17.3751 9.44778 17.4244 9.48198 17.5118C10.0405 19.0316 11.2524 19.4951 12.1415 19.7534C12.2631 19.7724 12.3846 19.7724 12.5214 19.8028C12.5214 19.8028 12.5214 19.8028 12.4986 19.8256C12.2365 20.3043 11.1765 20.6273 10.6902 20.7944C9.80251 21.1133 8.85612 21.2351 7.91667 21.1516C7.76849 21.1288 7.7343 21.1326 7.69631 21.1516C7.65831 21.1706 7.69631 21.2123 7.7381 21.2503C7.92806 21.3757 8.11803 21.4859 8.31559 21.5923C8.90374 21.9131 9.52553 22.1679 10.1696 22.3521C13.5054 23.2716 17.2591 22.5953 19.7629 20.1068C21.7309 18.1539 22.4224 15.4602 22.4224 12.7627C22.4224 12.6601 22.5477 12.5993 22.6199 12.5462C23.1178 12.1582 23.5568 11.7 23.9231 11.186C23.9865 11.1094 24.0191 11.0118 24.0143 10.9125C24.0143 10.8555 24.0143 10.8669 23.9421 10.8973Z" fill="#33CCFF"/>
</svg>
